<?xml version="1.0" encoding="utf-8"?>
<!-- Generator: Adobe Illustrator 23.1.1, SVG Export Plug-In . SVG Version: 6.00 Build 0)  -->
<svg version="1.1" id="Layer_1" xmlns="http://www.w3.org/2000/svg" xmlns:xlink="http://www.w3.org/1999/xlink" x="0px" y="0px"
	 viewBox="0 0 273 132" style="enable-background:new 0 0 273 132;" xml:space="preserve">
<style type="text/css">
	.st0{clip-path:url(#SVGID_2_);}
	.st1{clip-path:url(#SVGID_4_);}
	.st2{clip-path:url(#SVGID_6_);}
	.st3{clip-path:url(#SVGID_8_);}
	.st4{clip-path:url(#SVGID_10_);}
	.st5{clip-path:url(#SVGID_12_);}
	.st6{clip-path:url(#SVGID_14_);}
</style>
<g>
	<g>
		<defs>
			<rect id="SVGID_1_" x="-181" y="-195" width="611.9" height="792"/>
		</defs>
		<clipPath id="SVGID_2_">
			<use xlink:href="#SVGID_1_"  style="overflow:visible;"/>
		</clipPath>
		<path class="st0" d="M183,57.2c-12.6,0.7-21.7,8.1-21.7,22.8c0,15.5,10.1,23.4,22.2,23.4c9.2,0,15.3-3.8,18.2-7.1l-5-4.7
			c-2.3,2.1-7.2,3.9-11.7,3.9c-5.1,0-10.8-2.4-12.8-8.3l31-5.5c0.1-1,0.2-1.7,0.2-3.1C203.5,63.7,197.5,56.4,183,57.2 M171.3,79.2
			c0.1-0.5,0.2-2,0.3-2.8c1.1-6.9,5.5-11.5,11.5-11.9c9.4-0.5,10.1,4.4,11.2,11.4L171.3,79.2z"/>
	</g>
	<g>
		<defs>
			<rect id="SVGID_3_" x="-181" y="-195" width="611.9" height="792"/>
		</defs>
		<clipPath id="SVGID_4_">
			<use xlink:href="#SVGID_3_"  style="overflow:visible;"/>
		</clipPath>
		<path class="st1" d="M81,35.7c-2.3,0-4.1,0.7-5.4,2c-1.3,1.3-1.9,2.9-1.9,4.8c0,1.9,0.6,3.5,1.9,4.9c1.3,1.4,3,2,5.4,2
			c2.3,0,4.1-0.7,5.4-2c1.3-1.4,1.9-3,1.9-4.9s-0.6-3.5-1.9-4.8C85.1,36.3,83.3,35.7,81,35.7"/>
	</g>
	<g>
		<defs>
			<rect id="SVGID_5_" x="-181" y="-195" width="611.9" height="792"/>
		</defs>
		<clipPath id="SVGID_6_">
			<use xlink:href="#SVGID_5_"  style="overflow:visible;"/>
		</clipPath>
		<rect x="75.3" y="61.5" class="st2" width="11.5" height="40.2"/>
	</g>
	<g>
		<defs>
			<rect id="SVGID_7_" x="-181" y="-195" width="611.9" height="792"/>
		</defs>
		<clipPath id="SVGID_8_">
			<use xlink:href="#SVGID_7_"  style="overflow:visible;"/>
		</clipPath>
		<rect x="97.7" y="30.9" class="st3" width="11.5" height="70.8"/>
	</g>
	<g>
		<defs>
			<rect id="SVGID_9_" x="-181" y="-195" width="611.9" height="792"/>
		</defs>
		<clipPath id="SVGID_10_">
			<use xlink:href="#SVGID_9_"  style="overflow:visible;"/>
		</clipPath>
		<path class="st4" d="M143.4,93.7c-2.2,0-3.8-0.6-4.6-1.8c-0.8-1.2-1.2-3-1.2-5.4V70H153v-8.6h-15.4V36.6h-8.3l-2.7,24.8h-8.1V70h8
			v16.4c0,5.7,1.2,9.8,3.6,12.5c2.4,2.6,6.2,3.9,11.4,3.9c2.6,0,4.8-0.2,6.8-0.8c1.9-0.5,6.5-2.5,7.8-4.6l-4.9-5.9
			C148.8,92.9,146.2,93.7,143.4,93.7"/>
	</g>
	<g>
		<defs>
			<rect id="SVGID_11_" x="-181" y="-195" width="611.9" height="792"/>
		</defs>
		<clipPath id="SVGID_12_">
			<use xlink:href="#SVGID_11_"  style="overflow:visible;"/>
		</clipPath>
		<path class="st5" d="M243,58.2c-1.2-0.5-2.8-0.8-4.8-0.8c-1.7,0-3.3,0.2-4.7,0.8c-2.4,0.9-4.7,2.2-6.6,3.8
			c-0.4,0.4-0.8,0.8-1.2,1.1c-0.3,0.3-0.7,0.7-0.9,0.9c0,0-1.8-5.6-1.8-5.6h-9.7v43.4h11.5l0-27.9c1.1-2.1,3.1-4.2,5.1-5.2
			c2-1,3.8-1.9,6.3-1.9c2.7,0,4.9,0.6,6.6,1.9l2.8-9.3C245.1,59.1,244.2,58.7,243,58.2"/>
	</g>
	<g>
		<defs>
			<rect id="SVGID_13_" x="-181" y="-195" width="611.9" height="792"/>
		</defs>
		<clipPath id="SVGID_14_">
			<use xlink:href="#SVGID_13_"  style="overflow:visible;"/>
		</clipPath>
		<path class="st6" d="M57.4,29.2c-9,0-16.9,4.6-17.6,16.1c-0.1,1-0.1,16.2-0.1,16.2h-8v8.6h8l0,20.4c0,0.7-0.1,1.4-0.2,2
			c-0.6,5.4-1.4,8.9-6.6,9.6c-2.9,0.4-4.2,0-6.5-0.6l0.7,7.9c2.2,0.8,5.8,1.1,8.3,1.1c8.9,0,14.6-4.4,15.2-16.2
			c0.1-0.9,0.1-21.3,0.1-24.2h0.1h14.7v-8.6c0,0-13.3,0-14.7,0c0.3-11.4-1.5-25.4,9-24.3c3,0.3,4.6,0.5,7,1.4l2.4-7
			c-1.6-0.9-1.6-0.8-3.4-1.3C63.8,29.8,59.9,29.2,57.4,29.2"/>
	</g>
</g>
</svg>
