<svg xmlns="http://www.w3.org/2000/svg" viewBox="0 0 218.02 81.35"><defs><style>.cls-1{fill:none;}</style></defs><title>FILTER_TEXT</title><g id="Layer_1" data-name="Layer 1"><path class="cls-1" d="M156.58,38.14c-6,.35-10.39,5-11.5,11.89-.08.49-.15,1.25-.21,1.87a.72.72,0,0,0,.85.77l21.38-4a.73.73,0,0,0,.58-.83C166.6,41.31,165.69,37.61,156.58,38.14Z" transform="translate(-0.87 -0.87)"/><path d="M156.49,30.87c-12.62.67-21.68,8.14-21.68,22.78C134.81,69.2,144.89,75,157.06,75c8.74,0,14.66-3.38,17.68-6.54a.71.71,0,0,0,0-1l-4-3.78a.72.72,0,0,0-.93-.06,20.16,20.16,0,0,1-11.25,3.49c-4.85,0-9.77-.42-11.92-5.55a.72.72,0,0,1,.51-1l29.18-6.11a.71.71,0,0,0,.57-.63,23.49,23.49,0,0,0,.14-2.6C177,36.41,171,30.1,156.49,30.87ZM146.27,52.56a.72.72,0,0,1-.85-.77c.06-.63.13-1.38.21-1.88,1.12-6.88,5-11.42,10.94-11.77,9.11-.53,10,3.17,11.1,9.72a.72.72,0,0,1-.58.83Z" transform="translate(-0.87 -0.87)"/><path d="M54.51,7.38a7,7,0,0,0-5.35,2,6.74,6.74,0,0,0-1.89,4.81,6.76,6.76,0,0,0,7.24,6.91,6.76,6.76,0,0,0,7.24-6.91,6.77,6.77,0,0,0-1.89-4.81A7,7,0,0,0,54.51,7.38Z" transform="translate(-0.87 -0.87)"/><path d="M49.51,73.36h10a.72.72,0,0,0,.72-.72V33.91a.72.72,0,0,0-.72-.72h-10a.72.72,0,0,0-.72.72V72.63A.72.72,0,0,0,49.51,73.36Z" transform="translate(-0.87 -0.87)"/><path d="M71.94,73.36H82a.72.72,0,0,0,.72-.72V3.29A.72.72,0,0,0,82,2.57h-10a.72.72,0,0,0-.72.72V72.64A.72.72,0,0,0,71.94,73.36Z" transform="translate(-0.87 -0.87)"/><path d="M116.9,65.37q-3.34,0-4.59-1.84a9.63,9.63,0,0,1-1.24-5.4V42.45a.72.72,0,0,1,.72-.72h14a.72.72,0,0,0,.72-.72v-7.2a.72.72,0,0,0-.72-.72h-14a.72.72,0,0,1-.72-.72V10.08s-.06-.7-.49-.74c-1.57-.15-5-.53-6.55-.67a1.07,1.07,0,0,0-1,.61c-1.07,9.58-2.24,18.49-3,23.17a.74.74,0,0,1-.72.64H92.67a.72.72,0,0,0-.72.72V41a.72.72,0,0,0,.72.72h6.55a.72.72,0,0,1,.72.72V58.13q0,8.53,3.62,12.47T115,74.54a26.37,26.37,0,0,0,6.75-.76c1.76-.46,5.84-2.18,7.43-4.14a.72.72,0,0,0,0-.92l-4.17-5a.72.72,0,0,0-.91-.16A14.09,14.09,0,0,1,116.9,65.37Z" transform="translate(-0.87 -0.87)"/><path d="M216.45,31.91a12.74,12.74,0,0,0-4.75-.75,14,14,0,0,0-4.7.75,21.65,21.65,0,0,0-6.65,3.83c-.43.36-.82.76-1.24,1.13a12.06,12.06,0,0,0-.89.93l-1.6-5.11a.71.71,0,0,0-.69-.5h-8.47a.72.72,0,0,0-.72.72v40a.72.72,0,0,0,.72.72h10a.72.72,0,0,0,.72-.72l.05-24.94a.69.69,0,0,1,.1-.37,13.69,13.69,0,0,1,5-5,12.94,12.94,0,0,1,6.32-1.92A11.36,11.36,0,0,1,215.47,42a.71.71,0,0,0,1-.42l2.36-7.86a.7.7,0,0,0-.35-.84C218,32.58,217.32,32.27,216.45,31.91Z" transform="translate(-0.87 -0.87)"/><path d="M31.85.87c-9,0-16.94,4.58-17.63,16.11-.05.84-.11,12.51-.12,15.53a.71.71,0,0,1-.72.71H6.82a.72.72,0,0,0-.72.72v7.2a.72.72,0,0,0,.72.72h6.55a.72.72,0,0,1,.72.72V62.3c0,.71-.1,1.37-.17,2-.61,5.42-1.38,8.88-6.64,9.55a12.7,12.7,0,0,1-5.52-.36.72.72,0,0,0-.9.76l.54,6.41a.69.69,0,0,0,.49.62,29.82,29.82,0,0,0,7.86,1c8.88,0,14.56-4.39,15.24-16.16.05-.9.11-21.32.12-24.2H39.17a.72.72,0,0,0,.72-.72v-7.2a.71.71,0,0,0-.71-.72H25.93a.7.7,0,0,1-.71-.73c.22-11.3-1.3-24.65,9-23.57a25.94,25.94,0,0,1,6.28,1.14.72.72,0,0,0,.92-.44l1.94-5.71A.73.73,0,0,0,43,3a10.33,10.33,0,0,0-2.89-1A39,39,0,0,0,31.85.87Z" transform="translate(-0.87 -0.87)"/></g></svg>