<?xml version="1.0" encoding="utf-8"?>
<!-- Generator: Adobe Illustrator 23.1.1, SVG Export Plug-In . SVG Version: 6.00 Build 0)  -->
<svg version="1.1" id="Layer_1" xmlns="http://www.w3.org/2000/svg" xmlns:xlink="http://www.w3.org/1999/xlink" x="0px" y="0px"
	 viewBox="0 0 127.8 100.5" style="enable-background:new 0 0 127.8 100.5;" xml:space="preserve">
<style type="text/css">
	.st0{clip-path:url(#SVGID_2_);}
	.st1{clip-path:url(#SVGID_4_);}
	.st2{clip-path:url(#SVGID_6_);}
	.st3{clip-path:url(#SVGID_8_);}
	.st4{clip-path:url(#SVGID_10_);}
	.st5{clip-path:url(#SVGID_12_);}
	.st6{clip-path:url(#SVGID_14_);}
</style>
<g>
	<g>
		<defs>
			<rect id="SVGID_1_" x="-256.1" y="-117" width="611.9" height="792"/>
		</defs>
		<clipPath id="SVGID_2_">
			<use xlink:href="#SVGID_1_"  style="overflow:visible;"/>
		</clipPath>
		<path class="st0" d="M60,94.4c0.6,0.8,1.3,1.5,2,2c0.9,0.6,2,0.8,3.3,0c0.5-0.3,1-1.2,1.3-1.7c1.9-2.3,3.8-4.7,5.7-7
			c6.2-7.5,12.3-15,18.4-22.5c6-7.3,12-14.6,18-22c1-1.2,2-2.4,3-3.6c0.8-1,2.3-2.3,2.8-3.5c0.5-1.3-0.2-4.3-2.2-4.3
			c-6.1,0-12.1,0-18.2,0c-5.2,0-10.4,0-15.6,0c0,1.5,0,3,0,4.6c0,0.4,0,0.9,0,1.3H104L63.5,88L22.1,37.8H50c0-0.4,0-0.8,0-1.3
			c0-1.6,0-3.1,0-4.6c-6.4,0-12.7,0-19.1,0c-3.8,0-7.6,0-11.4,0c-2.4,0-7.5-0.8-8.4,2c-0.9,2.5,3.4,6,4.8,7.7c2.2,2.7,4.4,5.3,6.7,8
			c7.1,8.4,14.1,16.9,21.1,25.3C49.1,81.3,54.6,87.9,60,94.4"/>
	</g>
	<g>
		<defs>
			<rect id="SVGID_3_" x="-256.1" y="-117" width="611.9" height="792"/>
		</defs>
		<clipPath id="SVGID_4_">
			<use xlink:href="#SVGID_3_"  style="overflow:visible;"/>
		</clipPath>
		<path class="st1" d="M67.9,31.9c3.5,0,7.1,0,10.6,0c-0.1-6.1-0.6-11.1-2-14.8c-0.8-0.2-1.7-0.3-2.9-0.4C67,16,68.1,24.7,67.9,31.9
			"/>
	</g>
	<g>
		<defs>
			<rect id="SVGID_5_" x="-256.1" y="-117" width="611.9" height="792"/>
		</defs>
		<clipPath id="SVGID_6_">
			<use xlink:href="#SVGID_5_"  style="overflow:visible;"/>
		</clipPath>
		<path class="st2" d="M56.5,56.6c3.3-0.4,3.8-2.6,4.2-6.1c0-0.4,0.1-0.8,0.1-1.3l0-11.5H50c0,7.9,0.6,14.2,2.5,18.5
			C53.9,56.6,54.7,56.9,56.5,56.6"/>
	</g>
	<g>
		<defs>
			<rect id="SVGID_7_" x="-256.1" y="-117" width="611.9" height="792"/>
		</defs>
		<clipPath id="SVGID_8_">
			<use xlink:href="#SVGID_7_"  style="overflow:visible;"/>
		</clipPath>
		<path class="st3" d="M67.8,51.7c-0.4,7.5-4,10.3-9.7,10.3c-0.1,0-0.2,0-0.3,0c1.8,0.8,3.9,1.3,6.5,1.3
			c13.6,0.1,14.3-9.2,14.3-25.5H67.9C67.9,40,67.8,51.2,67.8,51.7"/>
	</g>
	<g>
		<defs>
			<rect id="SVGID_9_" x="-256.1" y="-117" width="611.9" height="792"/>
		</defs>
		<clipPath id="SVGID_10_">
			<use xlink:href="#SVGID_9_"  style="overflow:visible;"/>
		</clipPath>
		<path class="st4" d="M60.9,21.8c0.4-7.3,5.5-10.2,11.2-10.2h0c-2-1.2-4.5-1.9-7.9-1.9c-12.4,0-14.1,8-14.3,22.2
			c3.6,0,7.2,0,10.9,0C60.9,30.4,60.9,22.4,60.9,21.8"/>
	</g>
	<g>
		<defs>
			<rect id="SVGID_11_" x="-256.1" y="-117" width="611.9" height="792"/>
		</defs>
		<clipPath id="SVGID_12_">
			<use xlink:href="#SVGID_11_"  style="overflow:visible;"/>
		</clipPath>
		<path class="st5" d="M67.9,31.9l10.5,0l0,5.8l-10.6,0c0,0,0,0,0,0h10.7c0-0.4,0-0.8,0-1.3c0-1.6,0-3.1,0-4.6
			C75,31.9,71.5,31.9,67.9,31.9C67.9,31.9,67.9,31.9,67.9,31.9"/>
	</g>
	<g>
		<defs>
			<rect id="SVGID_13_" x="-256.1" y="-117" width="611.9" height="792"/>
		</defs>
		<clipPath id="SVGID_14_">
			<use xlink:href="#SVGID_13_"  style="overflow:visible;"/>
		</clipPath>
		<path class="st6" d="M50,37.8h10.9v0L50,37.8l0-5.8l10.9,0v0c-3.6,0-7.2,0-10.9,0c0,1.5,0,3,0,4.6C50,36.9,50,37.3,50,37.8"/>
	</g>
	<g>
		<defs>
			<rect id="SVGID_15_" x="-256.1" y="-117" width="611.9" height="792"/>
		</defs>
		<clipPath id="SVGID_16_">
			<use xlink:href="#SVGID_15_"  style="overflow:visible;"/>
		</clipPath>
	</g>
	<g>
		<defs>
			<rect id="SVGID_17_" x="-256.1" y="-117" width="611.9" height="792"/>
		</defs>
		<clipPath id="SVGID_18_">
			<use xlink:href="#SVGID_17_"  style="overflow:visible;"/>
		</clipPath>
	</g>
	<g>
		<defs>
			<rect id="SVGID_19_" x="-256.1" y="-117" width="611.9" height="792"/>
		</defs>
		<clipPath id="SVGID_20_">
			<use xlink:href="#SVGID_19_"  style="overflow:visible;"/>
		</clipPath>
	</g>
	<g>
		<defs>
			<rect id="SVGID_21_" x="-256.1" y="-117" width="611.9" height="792"/>
		</defs>
		<clipPath id="SVGID_22_">
			<use xlink:href="#SVGID_21_"  style="overflow:visible;"/>
		</clipPath>
	</g>
	<g>
		<defs>
			<rect id="SVGID_23_" x="-256.1" y="-117" width="611.9" height="792"/>
		</defs>
		<clipPath id="SVGID_24_">
			<use xlink:href="#SVGID_23_"  style="overflow:visible;"/>
		</clipPath>
	</g>
	<g>
		<defs>
			<rect id="SVGID_25_" x="-256.1" y="-117" width="611.9" height="792"/>
		</defs>
		<clipPath id="SVGID_26_">
			<use xlink:href="#SVGID_25_"  style="overflow:visible;"/>
		</clipPath>
	</g>
	<g>
		<defs>
			<rect id="SVGID_27_" x="-256.1" y="-117" width="611.9" height="792"/>
		</defs>
		<clipPath id="SVGID_28_">
			<use xlink:href="#SVGID_27_"  style="overflow:visible;"/>
		</clipPath>
	</g>
</g>
</svg>
