<svg xmlns="http://www.w3.org/2000/svg" viewBox="0 0 112.4 97.78"><title>ICON</title><g id="Layer_1" data-name="Layer 1"><path d="M109.6,34.9s0,0,0,0h0C109.53,34.92,109.56,34.92,109.6,34.9Z" transform="translate(-1.91 -2.32)"/><path d="M108.05,29.55a40.51,40.51,0,0,0-4.8-.25c-3.13-.07-6.27-.1-9.41-.13q-8.06-.08-16.1-.12c0-.63,0-1.27,0-1.9,0-6-.16-13.78-4.46-18.55a1.9,1.9,0,0,0-.3-.4,30.57,30.57,0,0,0-2.51-2.58A14.19,14.19,0,0,0,64.24,3C60.71,2.31,57,1.93,53.53,2.94A19.27,19.27,0,0,0,44.48,8.4c-4.68,5.27-5.15,12.26-5.47,19L39,29H34.22c-7.32,0-14.65,0-22,.05-1,0-2.06,0-3.09.05-3.1.17-7.36,1.56-7.24,5.4.08,2.73,2.27,4.6,4,6.48,1.34,1.46,2.64,3,4,4.44,7.64,8.77,15,17.75,22.41,26.75C38.72,80,45.16,87.91,51.46,95.94a11.3,11.3,0,0,0,4.09,3.62,6.5,6.5,0,0,0,6-.46c2.35-1.37,4.26-3.68,6.12-5.64,3.78-4,7.41-8.1,11-12.24,7.88-9.11,15.54-18.42,23.08-27.83,2.77-3.46,5.53-6.94,8.24-10.46,1.75-2.27,4.21-4.87,4.3-7.89C114.41,31.52,111,30,108.05,29.55Zm-43.37-18a7.43,7.43,0,0,1,5.15.19c2.86,3.4,3.15,8.75,3.23,13.15,0,1.37,0,2.73,0,4.1l-7.64,0h-5c-.55-4.24-1-8.62.43-12.72C61.52,14.41,62.78,12.36,64.68,11.59ZM61,33.67l12,.06c0,1.94-.11,3.89-.15,5.82A57.68,57.68,0,0,1,71,54.06a23.92,23.92,0,0,1-1.28,3.62,15.38,15.38,0,0,1-.88,1.65c-.17.28-.34.55-.53.81s0,0-.28.35-.34.35-.52.51l-.11.1-.11.08a10.78,10.78,0,0,1-1.43.85,15.26,15.26,0,0,1-3.21,1.11,22.75,22.75,0,0,1-8.44.44c-.35,0-.7-.11-1-.18a10.88,10.88,0,0,0,3.75-3.56c2.65-4.06,3.49-9.4,4-14.13A60.55,60.55,0,0,0,61,33.67ZM44,22.19a20.88,20.88,0,0,1,2-7.93,13.63,13.63,0,0,1,6.35-5.93,15,15,0,0,1,8.7-1.12c.51.06,1,.14,1.52.22a9.44,9.44,0,0,0-2.75,1.83c-3.24,3.11-4.51,7.79-4.66,12.15A49.26,49.26,0,0,0,55.69,29l-12,0C43.72,26.7,43.83,24.44,44,22.19Zm-.51,11.45,12.72,0c.12,1.14.22,2.29.27,3.44A51.36,51.36,0,0,1,55.06,52c-1,3.77-2.94,8.71-7.52,8,0-.08-.11-.15-.15-.23a11.8,11.8,0,0,1-.67-1.2,17.61,17.61,0,0,1-1.06-2.86,44.81,44.81,0,0,1-1.46-7.45A113.08,113.08,0,0,1,43.53,33.64Zm66.07,1.5a5.4,5.4,0,0,1-.78,1.6c-.42.65-.91,1.27-1.38,1.89s-.78,1-1.18,1.54l-.22.28-.17.21L105,41.73q-1.89,2.43-3.81,4.84Q90.82,59.71,80,72.53c-3.7,4.36-7.44,8.69-11.27,12.93-1.61,1.78-3.23,3.54-4.89,5.27-.75.78-1.5,1.55-2.26,2.31s-2.08,2.34-3.41,2.38-2.52-1.74-3.28-2.69c-.52-.65-1-1.31-1.55-2L49.52,86q-5-6.25-10.08-12.46c-7.35-9-14.74-18-22.28-26.84-2.72-3.19-5.45-6.39-8.29-9.47-.53-.58-1.13-1.13-1.63-1.74a4.52,4.52,0,0,1-.61-1l0-.11a.68.68,0,0,1,.16-.11,10.64,10.64,0,0,1,4.34-.64c6.48-.06,13,0,19.45,0h8.28a120.26,120.26,0,0,0,.49,12.88c.54,5.57,1.27,12.18,4.86,16.76a1.89,1.89,0,0,0,.34.46,2.48,2.48,0,0,0,.33.49c3.67,4.22,10.67,4.65,15.82,4a21.23,21.23,0,0,0,8.26-2.55,12.77,12.77,0,0,0,5-6.17c2.42-5.52,3.18-11.7,3.46-17.68.13-2.68.2-5.37.25-8.07,3.66,0,7.32,0,11,.06,5.81,0,11.63,0,17.44.26.25,0,1.07.09,1.18.08a10,10,0,0,1,1.72.42,1.35,1.35,0,0,1,.4.19l.16.09h0l0,0h0s0,.07,0,.05A.55.55,0,0,1,109.6,35.14Zm0-.28,0,0h0Zm0,0s0,0,0,0h0a0,0,0,0,1,0,0s0,0,0,0h0l0,0h0a.08.08,0,0,1,0-.06C109.8,34.71,109.71,34.82,109.63,34.88Z" transform="translate(-1.91 -2.32)"/></g></svg>