<?xml version="1.0" encoding="utf-8"?>
<!-- Generator: Adobe Illustrator 23.1.1, SVG Export Plug-In . SVG Version: 6.00 Build 0)  -->
<svg version="1.1" id="Layer_1" xmlns="http://www.w3.org/2000/svg" xmlns:xlink="http://www.w3.org/1999/xlink" x="0px" y="0px"
	 viewBox="0 0 665.83 716.04" style="enable-background:new 0 0 665.83 716.04;" xml:space="preserve">
<path d="M357.51,674.28c-1.56-1.05-1.7-3.04-1.61-4.79c0.16-3.13,1.14-5.97,2.56-8.73c1.53-2.97,4.03-5.21,6.37-7.52
	c3.38-3.35,6.72-6.73,9.98-10.19c3.69-3.91,7.57-7.63,11.29-11.5c3.96-4.1,7.65-8.42,11.75-12.39c4.2-4.06,8.44-8.08,12.58-12.2
	c4.33-4.32,8.4-8.87,12.71-13.2c2-2.01,4.08-3.94,6.11-5.93c2.24-2.2,4.37-4.49,6.48-6.81c3.62-3.96,7.53-7.65,11.11-11.64
	c2.01-2.31,3.93-4.7,5.93-7.02c2.24-2.59,4.43-5.2,6.57-7.87c2.08-2.58,4.08-5.22,6.15-7.81c1.94-2.44,3.93-4.82,5.75-7.36
	c-4.28,0.21-8.57,0.26-12.85,0.3c-5.74,0.05-11.48,0.08-17.23,0.25c-5.78,0.17-11.54,0.56-17.31,0.84
	c-8.19,0.39-16.38,0.8-24.56,1.26c-8.04,0.45-16.08,0.78-24.12,1.31c0.18-0.01,0.36-0.03,0.55-0.04c-0.72,0.05-1.44,0.1-2.17,0.15
	c0.03,0,0.06,0,0.09-0.01c-12.53,0.85-25.08,1.06-37.63,1.29c-12.79,0.24-25.58,0.07-38.36,0.83c-0.84,0.05-1.67,0.1-2.51,0.16
	c-6.08,0.44-12.15,0.92-18.24,1.26c-6.47,0.36-12.95,0.55-19.42,0.93c-3.11,0.19-6.23,0.41-9.35,0.55
	c-3.14,0.15-6.55,0.48-9.64-0.15c-3.76-0.77-7.14-2.27-10.02-4.83c-1.25-1.1-3.02-3.13-2.85-4.95c0.14-1.42,1.27-2.75,2.17-3.76
	c1.69-1.88,3.84-3.24,6.11-4.3c2.94-1.37,6.1-1.68,9.31-1.7c2.36-0.02,4.73-0.13,7.09-0.25c5.08-0.26,10.14-0.61,15.21-0.86
	c5.01-0.24,10.01-0.42,15.01-0.74c6-0.43,12-0.93,18.01-1.24c6.59-0.35,13.18-0.52,19.77-0.62c6.34-0.1,12.68-0.06,19.03-0.18
	c5.93-0.11,11.87-0.22,17.79-0.39c4.95-0.14,9.9-0.32,14.84-0.63c0.83-0.06,1.65-0.11,2.48-0.17c-0.45,0.03-0.9,0.06-1.35,0.09
	c12.71-0.86,25.44-1.52,38.16-2.15c5.86-0.29,11.72-0.51,17.57-0.85c5.82-0.33,11.63-0.64,17.45-0.77c9.7-0.22,19.41-0.08,29.1-0.58
	c5.59-0.29,11.92,0.11,15.98,4.55c3.08,3.36,4.59,7.76,4.29,12.32c-0.21,3.12-1.09,5.95-2.54,8.72c-1.24,2.38-2.86,4.62-4.41,6.81
	c-1.65,2.33-3.48,4.5-5.27,6.72c-1.75,2.16-3.42,4.4-5.16,6.58c-3.45,4.33-7.08,8.49-10.62,12.75c-3.7,4.45-7.62,8.65-11.68,12.77
	c-4.29,4.35-8.28,8.95-12.69,13.18c-4.35,4.17-8.44,8.57-12.62,12.91c-4.01,4.17-8.12,8.26-12.3,12.25
	c-4.19,3.99-8.34,7.98-12.24,12.27c-3.64,4.01-7.44,7.85-11.25,11.71c-3.6,3.65-7.07,7.43-10.7,11.05
	c-1.54,1.53-3.08,3.05-4.62,4.59c-1.12,1.11-2.22,2.29-3.52,3.21c-2.79,1.99-6.04,3.44-9.49,3.71c-0.6,0.05-1.22,0.08-1.86,0.08
	C360.88,675.54,358.99,675.27,357.51,674.28z"/>
<path d="M351.64,671.65c-2.61-0.81-4.8-2.37-6.97-3.97c-3.69-2.73-7.21-5.69-10.85-8.48c-9.16-6.9-18.44-13.62-27.24-20.99
	c-4.17-3.49-8.44-6.88-12.52-10.48c-3.99-3.5-8.1-6.86-11.97-10.48c-4.11-3.84-8.14-7.75-12.26-11.57
	c-4.83-4.46-9.66-8.89-14.23-13.62c-4.38-4.52-8.74-9.05-13.11-13.57c-1.92-1.99-3.85-3.97-5.68-6.06c-2.12-2.43-4.09-5.01-6-7.6
	c-2.38-3.24-4.58-6.74-6.27-10.39c-1.23-2.65-2.27-5.37-2.26-8.34c0-2.59,0.35-5.23,1.64-7.53c1.65-2.96,4.31-4.97,7.73-5.27
	c2.07-0.18,3.91,0.81,5.48,2.05c0.93,0.74,2.07,1.87,2.2,3.12c0.04,0.38,0.01,0.77-0.07,1.14c0.02,0.03,0.03,0.05,0.05,0.08
	c1.08,1.59,1.89,3.28,2.6,5.04c0.59,1.31,1.24,2.58,1.94,3.84c1.54,2.53,3.23,4.94,5.03,7.3c3.5,4.37,7.4,8.31,11.25,12.37
	c4.4,4.65,8.86,9.26,13.4,13.77c4.24,4.1,8.64,8.03,12.93,12.08c3.95,3.73,7.83,7.54,11.9,11.12c8.02,7.07,16.19,14,24.51,20.71
	c4.6,3.71,9.28,7.32,13.99,10.9c3.41,2.56,6.89,5.03,10.28,7.62c2.82,2.16,5.55,4.43,8.36,6.6c2.45,1.81,5.01,3.44,6.98,5.82
	c1.25,1.51,2.39,3.16,3.17,4.97c0.49,1.15,0.81,2.3,1.12,3.5c0.01,0.04,0.03,0.09,0.04,0.13c1.13,1.92-0.2,4.2-1.88,5.38
	c-1.05,0.73-2.24,1.12-3.47,1.4c-1.19,0.27-2.42,0.4-3.64,0.4C355.71,672.63,353.62,672.27,351.64,671.65z"/>
<path d="M318.14,161.15c-0.15-0.09-0.3-0.18-0.45-0.28c-0.62-0.61-1.24-1.22-1.85-1.83c-0.29-0.3-0.61-0.56-0.93-0.8
	c-0.63-0.73-1.25-1.45-1.87-2.19c-0.41-0.49-0.87-0.93-1.36-1.31c-0.38-0.5-0.75-0.99-1.11-1.47c-1.96-2.61-3.43-5.6-4.87-8.52
	c-1.58-3.2-2.88-6.53-4.23-9.83c-2.56-6.26-3.86-12.8-4.38-19.53c-0.49-6.33-0.4-12.7,0.62-18.97c1.96-12,5.37-23.83,10.93-34.67
	c2.01-3.92,4.34-7.69,6.88-11.28c2.4-3.39,5.21-6.5,7.98-9.59c1.68-1.87,3.31-3.66,5.32-5.19c2.16-1.64,4.93-2.71,7.58-3.18
	c1.85-0.33,3.83-0.41,5.66,0.03c1.25,0.3,2.77,0.83,3.3,2.11c0.03,0.07,0.06,0.14,0.07,0.17c0.11,0.33,0.19,0.68,0.26,1.02
	c0.2,1.03,0.22,2.1,0.19,3.14c-0.1,2.94-1.11,5.93-2.48,8.5c-1.46,2.75-3.62,4.94-5.68,7.24c-1.58,1.78-3.15,3.56-4.66,5.4
	c-1.75,2.3-3.34,4.69-4.84,7.16c-1.61,2.83-3.09,5.73-4.41,8.71c-1.52,3.75-2.81,7.58-3.91,11.48c-1.15,4.45-2.15,8.98-2.83,13.53
	c-0.27,2.42-0.42,4.83-0.47,7.26c0.07,3.22,0.31,6.42,0.7,9.62c0.27,1.77,0.59,3.51,1.01,5.24c0.9,2.92,2.07,5.73,3.24,8.54
	c-0.01-0.02-0.02-0.05-0.03-0.07c1.23,2.88,2.56,5.71,4.08,8.44c0.51,0.81,1.04,1.61,1.6,2.39c0.76,0.93,1.54,1.83,2.36,2.7
	c1.33,1.44,2.42,3.16,3.27,4.92c1.38,2.85,2.15,6.08,1.97,9.25c-0.06,1.17-0.22,2.61-1.11,3.47c-1.17,1.13-3.21,1.43-4.74,1.52
	c-0.26,0.01-0.51,0.02-0.77,0.02C324.58,164.31,321.21,162.97,318.14,161.15z"/>
<path d="M329.76,175.83c-2.98-2.66-4.61-6.35-5.09-10.25c-0.34-2.79,0.09-5.99,1.52-8.45c0.43-0.73,0.87-1.23,1.67-1.55
	c0.85-0.33,1.91-0.34,2.8-0.26c2.53,0.24,4.87,1.17,7.08,2.37c0.29-0.35,0.57-0.7,0.85-1.06c1.98-2.59,3.87-5.31,5.56-8.1
	c2.31-4.03,4.37-8.23,6.21-12.5c1.4-3.4,2.65-6.83,3.67-10.35c0.79-3.09,1.36-6.24,1.81-9.4c0.35-2.93,0.54-5.86,0.58-8.81
	c-0.06-3.08-0.28-6.14-0.65-9.2c-0.33-2.25-0.77-4.47-1.33-6.67c-0.81-2.73-1.82-5.38-2.74-8.07c-0.99-2.9-1.97-5.8-3.11-8.65
	c-2.82-6.49-6.41-12.63-9.58-18.95c-1.01-2.02-1.94-4.01-2.48-6.21c-0.53-2.14-0.73-4.43-0.5-6.63c0.19-1.9,0.65-3.77,1.53-5.48
	c0.41-0.78,0.98-1.78,1.8-2.2c1.71-0.88,4.2-0.18,5.87,0.42c3.73,1.35,6.92,3.93,9.23,7.12c1.76,2.41,2.91,5.36,4.26,8.01
	c1.37,2.66,2.79,5.28,4.17,7.93c2.91,5.59,5.24,11.34,7.26,17.3c1.82,5.33,3.73,10.55,4.74,16.11c2.04,11.2,1.57,22.55-0.6,33.69
	c-1.04,5.35-2.77,10.51-4.79,15.57c-2.48,6.21-5.45,12.22-8.85,17.97c-2.43,4.11-5.37,8.03-8.42,11.7
	c-3.31,3.98-6.92,7.85-12.44,8.24c-0.26,0.02-0.53,0.03-0.79,0.03C335.64,179.51,332.23,178.03,329.76,175.83z"/>
<path d="M331.28,179.49c-0.84-0.43-1.65-0.92-2.42-1.47c-0.09-1.1-0.36-2.18-0.79-3.3c-0.28-0.74-0.71-1.43-1.07-2.12
	c0.11,0.21,0.22,0.41,0.32,0.62c-1.62-3-3.42-5.97-5.76-8.47c-0.95-1.01-1.93-1.99-2.92-2.95c-0.12-0.41-0.22-0.83-0.3-1.26
	c-0.56-2.81-0.37-5.77,0.47-8.5c0.49-1.6,1.59-4.01,3.49-4.27c2.4-0.33,4.92,0.58,7.05,1.59c3.18,1.51,5.98,3.99,8.17,6.71
	c1.65,2.04,3.49,3.92,5.09,6.01c0.64,0.84,1.28,1.69,1.91,2.54c1.49,2,2.34,4.41,2.18,6.94c-0.29,4.45-3.59,8.28-7.97,9.17
	c-0.65,0.14-1.3,0.2-1.96,0.2C334.87,180.91,333,180.37,331.28,179.49z"/>
<path d="M342.06,528.63c-4.3-3.47-6.17-9.49-6.23-14.8c-0.06-6.01-0.32-12.02-0.47-18.03c-0.62-24.8-0.88-49.59-0.73-74.39
	c0.08-14.02,0.35-28.04,0.33-42.06c0,0.18,0,0.37,0,0.56c0-0.2,0-0.4,0-0.6c0-0.02,0-0.04,0-0.06c-0.04-5.94-0.16-11.88-0.27-17.81
	c-0.13-6.46-0.08-12.91-0.22-19.36c-0.28-12.58-1.02-25.13-1.41-37.7c-0.2-6.35-0.27-12.7-0.49-19.04
	c-0.23-6.19-0.5-12.38-0.61-18.58c-0.11-6.14-0.15-12.28-0.39-18.42c-0.25-6.2-0.58-12.4-0.74-18.6c-0.2-7.51-0.22-15.03-0.53-22.54
	c0.08-0.27,0.14-0.54,0.18-0.83c0.09-0.64,0.11-1.3,0.12-1.94c0.01-1.71-0.05-3.42-0.11-5.14c-0.11-3.75-0.21-7.51-0.44-11.25
	c-0.11-1.87-0.23-3.76-0.46-5.62c-0.11-0.87-0.2-1.74-0.36-2.6c-0.1-0.58-0.21-1.14-0.37-1.68c-0.09-1.14-0.35-2.25-0.8-3.4
	c-0.28-0.74-0.71-1.43-1.07-2.12c0.11,0.21,0.22,0.42,0.33,0.62c-1.02-1.89-2.11-3.76-3.36-5.51c-1.1-3.83-1.82-7.91,0.22-11.59
	c1.09-1.98,3.67-3.67,5.79-2.43c2.74,0.69,5.27,1.58,7.71,3.07c3.4,2.06,5.38,5.5,6.39,9.25c0.74,2.73,1.09,5.53,1.68,8.29
	c0.59,2.79,1.48,5.5,1.99,8.31c2.02,11.11,2.48,22.43,2.63,33.69c0.16,11.88,0.82,23.74,1.14,35.61c0.16,6.17,0.16,12.35,0.33,18.52
	c0.17,6.26,0.5,12.5,0.65,18.76c0.31,12.74,0.84,25.46,1.33,38.2c0.48,12.67,0.51,25.35,0.77,38.03
	c0.25,12.72,0.13,25.44,0.01,38.16c-0.12,12.01-0.18,24.02-0.25,36.03c-0.01,1.73-0.01,3.46-0.01,5.19
	c0.09,12.57,0.26,25.14,0.5,37.72c0.11,5.91,0.28,11.82,0.44,17.73c0.07,3,0.17,6,0.27,9c0.04,1.38,0.06,2.76,0.08,4.13
	c0.02,2.48-0.29,4.76-1.02,7.13c-1.17,3.79-3.73,7.5-7.22,9.49c-0.54,0.31-1.07,0.44-1.59,0.44
	C344.45,530.41,343.18,529.53,342.06,528.63z"/>
<path d="M330.06,188.04c-0.11-1.87-0.23-3.76-0.46-5.62c-0.11-0.87-0.2-1.74-0.36-2.6c-0.1-0.58-0.21-1.14-0.37-1.68
	c-0.09-1.14-0.35-2.25-0.79-3.4c-0.28-0.74-0.71-1.43-1.07-2.12c0.11,0.21,0.21,0.41,0.32,0.62c-1.62-3-3.42-5.97-5.76-8.47
	c-0.54-0.58-1.1-1.15-1.66-1.7c2.24,0.99,4.34,2.37,6.21,4.1c5.58,5.18,8.6,13.12,7.36,20.68c-0.47,2.86-1.52,5.68-3.09,8.16
	C330.31,193.34,330.22,190.69,330.06,188.04z"/>
<path d="M392.55,525.96c-3.72-1.55-6.19-5.21-7.65-8.82c-0.77-1.9-1.21-3.99-1.29-6.03c-0.07-1.7,0.04-3.42,0.08-5.12
	c0.06-2.9,0.13-5.8,0.19-8.7c0.14-6.13,0.29-12.26,0.48-18.39c0.38-12.09,0.79-24.19,1.22-36.28c0.46-12.91,0.43-25.86,0.42-38.78
	c-0.01-6.02,0.18-12.04,0.16-18.07c0-0.04,0-0.08,0-0.13c-0.03-3.42-0.08-6.84-0.14-10.25c0.17-0.14,0.34-0.29,0.51-0.45
	c2.44-2.29,3.41-5.27,3.78-8.48c0.31-2.68,0.49-5.38,0.69-8.06c0.36-4.89,0.64-9.77,0.79-14.67c0.05-1.69,0.09-3.38,0.11-5.06
	c0.14-0.98,0.27-1.96,0.41-2.93c1.89-13.14,4.5-26.14,7.43-39.09c0.73-3.23,1.46-6.45,2.2-9.67c1.35-1.31,2.57-2.77,3.66-4.29
	c-0.03,2.28-0.09,4.57-0.15,6.85c-0.29,11.19-0.3,22.38-0.48,33.58c-0.03,1.6-0.03,3.21-0.04,4.81c0.08,12,0.38,23.99,0.67,35.99
	c0.15,6.21,0.26,12.42,0.32,18.63c0,0.98,0.04,1.96,0.02,2.92c0,0.13,0,0.26,0,0.39c0.02,0.36,0.02,0.72,0,1.09
	c0,0.43,0,0.86,0,1.29c-0.01,1.57-0.02,3.15-0.05,4.73c-0.05,3.11-0.1,6.22-0.11,9.33c-0.02,5.89-0.02,11.77-0.07,17.66
	c-0.05,6.76-0.03,13.52-0.23,20.28c-0.17,6.18-0.45,12.36-0.62,18.54c-0.35,12.35-0.82,24.7-1.12,37.05
	c-0.07,2.87-0.13,5.74-0.2,8.62c-0.08,3.14,0.08,6.37-0.56,9.46c-0.89,4.29-3.23,8.99-7,11.48c-0.75,0.49-1.5,0.84-2.31,0.84
	C393.32,526.2,392.95,526.13,392.55,525.96z"/>
<path d="M396.28,408.97c-1.65-0.52-2.8-2.35-3.53-3.79c-1.73-3.45-1.9-7.38-1.33-11.13c0.52-3.42,2.43-6.65,3.95-9.72
	c1.39-2.82,2.84-5.61,4.24-8.42c2.72-5.45,5.3-10.95,8.16-16.33c3.03-5.71,6.43-11.24,9.75-16.78c6.82-11.39,14.68-22.1,22.9-32.52
	c3.98-5.05,8.18-9.89,12.34-14.79c3.99-4.69,7.91-9.4,12.14-13.87c5.76-6.09,11.98-11.71,17.95-17.59c-0.31,0.3-0.61,0.6-0.91,0.89
	c4.29-4.29,8.46-8.71,12.87-12.88c1.21-1.14,2.42-2.26,3.86-3.11c1.77-1.05,3.58-1.8,5.56-2.33c1.64-0.43,3.33-0.54,5.02-0.51
	c1.86,0.03,5.26,0.58,6.24,2.51c0.9,1.77,0.49,4.54,0.05,6.34c-0.58,2.38-1.59,4.51-2.84,6.61c-1.72,2.87-4.43,5.03-6.81,7.34
	c-3.53,3.52-6.99,7.12-10.54,10.62c-3.6,3.55-7.33,6.97-10.95,10.5c-2.51,2.51-4.97,5.07-7.38,7.68c-2.79,3.03-5.4,6.2-8.05,9.36
	c-2.63,3.14-5.37,6.2-7.99,9.36c-2.47,2.97-4.88,5.98-7.27,9.01c-4.51,5.82-8.87,11.77-13,17.86c-3.89,5.75-7.43,11.73-10.96,17.71
	c-2.54,4.34-4.95,8.73-7.23,13.22c-2.47,4.88-4.77,9.85-7.25,14.73c-1.13,2.21-2.23,4.43-3.32,6.65c-1.37,2.82-2.67,5.53-4.86,7.83
	c-2.06,2.18-4.45,3.87-7.23,5c-0.76,0.31-1.81,0.68-2.76,0.68C396.82,409.09,396.54,409.05,396.28,408.97z"/>
<path d="M482.85,273.58c-2.69-2.43-4.11-5.92-5.03-9.34c-0.96-3.58-0.36-7.49-0.12-11.13c0.22-3.16,0.45-6.32,0.7-9.47
	c0.93-11.77,1.96-23.54,3.5-35.25c-0.33-0.34-0.64-0.69-0.94-1.04c-2.3-2.75-4.08-5.93-5.55-9.19c-2.84-6.29-4.22-12.9-4.71-19.76
	c-0.48-6.62,0.16-13.22,1.27-19.74c0.52-3.08,1.08-6.19,1.8-9.24c0.83-3.57,1.96-6.92,3.52-10.24c1.95-4.16,4.75-7.99,7.65-11.53
	c2.47-3.02,5.38-5.67,8.5-8.02c2.41-1.81,4.89-3.35,7.98-3.61c3.58-0.31,6.69,1.44,9.11,3.91c1.1,1.11,2,2.43,2.92,3.69
	c1.66,2.11,3.41,4.13,4.9,6.36c1.93,2.89,3.46,5.92,4.75,9.14c1.16,2.9,1.87,6,2.53,9.04c0.65,3,1.08,6.05,1.3,9.1
	c0.46,6.3-0.04,12.57-1.13,18.77c-0.54,3.05-1.17,6.05-2.04,9.02c-0.86,2.9-2.13,5.72-3.49,8.42c-0.92,1.83-2.04,3.56-3.22,5.24
	c-1.62,2.31-3.54,4.47-6,5.91c-2.62,1.53-5.85,2.79-9.03,2.88c-0.34,2.4-0.69,4.8-1.01,7.2c-0.61,4.87-1.03,9.77-1.44,14.66
	c-0.45,5.38-1,10.75-1.43,16.12c-0.21,2.61-0.4,5.21-0.58,7.82c-0.21,3.13-0.15,6.46-0.88,9.53c-0.81,3.35-2.38,6.54-4.78,9.05
	c-1.32,1.38-2.88,2.63-4.7,3.25c-0.27,0.16-0.58,0.24-0.89,0.24C485.09,275.39,483.64,274.29,482.85,273.58z M496.78,194.06
	c0.91-2.18,2.17-4.24,3.61-6.12c-0.12,0.15-0.24,0.3-0.35,0.45c0.71-0.94,1.37-1.9,2-2.89c0.66-1.2,1.26-2.42,1.81-3.67
	c0.49-1.24,0.93-2.48,1.32-3.75c0.75-3.02,1.29-6.11,1.74-9.19c0.25-2.2,0.36-4.4,0.38-6.61c-0.04-2.08-0.14-4.15-0.36-6.22
	c-0.37-2.39-0.86-4.76-1.46-7.11c-0.37-1.26-0.78-2.51-1.26-3.73c-0.39-0.86-0.81-1.7-1.26-2.53c-0.65-1.05-1.33-2.08-2.06-3.08
	c-0.01-0.01-0.01-0.02-0.02-0.02c-0.59,0.66-1.16,1.34-1.71,2.03c-1.09,1.47-2.12,2.98-3.08,4.53c-0.53,0.96-1.02,1.93-1.49,2.91
	c-0.36,0.91-0.68,1.82-0.98,2.76c-1.18,4.66-2.04,9.46-2.71,14.22c-0.28,2.47-0.45,4.94-0.5,7.43c0.05,2.42,0.19,4.82,0.46,7.23
	c0.23,1.45,0.5,2.88,0.84,4.3c0.41,1.39,0.87,2.75,1.4,4.09c0.51,1.16,1.06,2.29,1.66,3.41c0.2,0.33,0.4,0.65,0.6,0.97
	C495.84,193.62,496.32,193.83,496.78,194.06z"/>
<path d="M530.41,262.65c-1.38-0.03-2.79-0.01-4.16-0.17c-2.32-0.29-4.46-0.89-6.59-1.84c-2.38-1.06-4.51-2.75-6.17-4.77
	c-1.96,1.01-4.08,1.62-6.19,1.61c0.13,0,0.27,0,0.4,0c-0.38,0-0.84,0.04-1.2-0.12c-2.21-0.92-3.18-3.77-3.73-5.88
	c-0.95-3.66-0.53-7.84,0.77-11.36c0.64-1.72,1.54-3.36,2.33-5c0.72-1.49,1.44-2.99,2.19-4.47c1.63-3.19,3.36-6.33,5.28-9.35
	c7.04-11.07,15.53-21.5,26.26-29.19c5.61-4.01,11.62-7.31,17.74-10.48c5.68-2.94,11.58-5.58,17.68-7.53
	c6.79-2.16,13.58-3.59,20.72-3.61c3.05-0.01,6.09,0.39,9.1,0.81c2.46,0.34,4.78,0.86,6.92,2.21c2.68,1.7,4.16,4.74,4.5,7.81
	c0.15,1.37-0.09,2.76-0.31,4.11c-0.43,2.58-0.99,5.15-1.5,7.71c-0.65,3.24-1.33,6.45-2.24,9.63c-0.93,3.27-2.26,6.44-3.67,9.52
	c-2.58,5.66-5.67,11.26-9.15,16.41c-3.61,5.34-7.57,10.6-12.12,15.19c-2.28,2.31-4.7,4.51-7.44,6.28c-3.06,1.96-6.27,3.61-9.62,5
	c-6.28,2.61-12.79,4.74-19.53,5.73c-6.29,0.93-12.53,1.74-18.87,1.74C531.34,262.66,530.87,262.66,530.41,262.65z M525.25,240.66
	c-0.38,0.78-0.76,1.57-1.13,2.37c2.97-0.56,6.06-0.22,9.07-0.16c3.77-0.1,7.5-0.56,11.23-1.05c2.79-0.4,5.56-0.85,8.3-1.5
	c3.46-0.99,6.85-2.18,10.18-3.54c1.52-0.69,3.02-1.42,4.49-2.21c0.83-0.51,1.65-1.04,2.45-1.59c0.92-0.74,1.81-1.52,2.68-2.33
	c2.21-2.29,4.26-4.72,6.24-7.21c2.36-3.1,4.56-6.3,6.58-9.64c2.25-3.9,4.36-7.86,6.17-11.98c0.78-1.96,1.47-3.94,2.08-5.97
	c0.45-1.83,0.83-3.68,1.2-5.53c-0.04,0-0.09,0-0.13,0c-1.32,0.05-2.62,0.16-3.93,0.31c-2.08,0.34-4.12,0.79-6.16,1.31
	c-3.43,1.01-6.78,2.2-10.1,3.54c-5.83,2.56-11.46,5.51-17,8.63c-2.28,1.4-4.49,2.85-6.67,4.4c-2.45,1.94-4.8,3.96-7.08,6.09
	c-2.13,2.15-4.14,4.37-6.07,6.71c-3.22,4.19-6.24,8.48-8.99,12.99C527.46,236.38,526.31,238.49,525.25,240.66z"/>
<path d="M398.61,434.32c-1.7-1.95-2.58-4.54-2.41-7.12c0.16-2.64,1.4-5.14,3.39-6.87c2.04-1.77,4.47-2.41,7.12-2.41
	c2.58,0,5.23,1.49,6.87,3.39c1.7,1.95,2.58,4.54,2.41,7.12c-0.16,2.64-1.4,5.14-3.39,6.87c-2.04,1.77-4.47,2.41-7.12,2.41
	C402.91,437.71,400.26,436.22,398.61,434.32z"/>
<path d="M399.69,448.17c-0.77-0.22-1.4-1.01-1.85-1.61c-0.86-1.15-1.36-2.53-1.71-3.91c-0.87-3.35-0.44-6.96,0.64-10.2
	c1.07-3.2,3.24-6.11,5.29-8.76c1.94-2.51,4.03-4.9,6.1-7.31c8.31-9.72,18.02-18.22,28.53-25.49c4.93-3.4,10.01-6.6,15.19-9.59
	c0.07-0.04,0.15-0.08,0.21-0.12c0.19-0.11,0.38-0.23,0.58-0.34c5-2.89,10.25-5.35,15.41-7.92c4.51-2.25,9.06-4.4,13.63-6.51
	c4.25-1.97,8.51-3.96,12.96-5.42c4.35-1.44,8.74-2.75,13.12-4.07c5.25-1.57,10.6-2.78,15.89-4.19c6.55-1.73,13.23-2.73,19.94-3.64
	c5.45-0.74,10.96-1.26,16.46-1.53c3.31-0.15,6.69-0.16,10-0.52c-3.34,4.82-6.51,9.76-9.63,14.72c-1.04,1.65-2.02,3.34-2.95,5.05
	c-2.16,0.2-4.24,0.59-6.3,1.31c-0.18,0.04-0.36,0.08-0.54,0.12c-2.02,0.21-4.05,0.44-6.07,0.7c-1.16,0.16-2.32,0.33-3.47,0.51
	c-1.17,0.1-2.33,0.22-3.49,0.35c-3.96,0.43-7.94,1.23-11.82,2.11c-3.81,0.86-7.62,1.75-11.35,2.93c-2.12,0.68-4.26,1.34-6.34,2.14
	c-1.47,0.57-3.02,1.13-4.42,1.91c-2.43,0.79-4.84,1.61-7.21,2.57c-7.93,3.38-15.65,7.27-23.36,11.11c-2.21,1.1-4.42,2.21-6.62,3.33
	c-1.26,0.63-2.5,1.3-3.74,1.98c-0.4,0.22-0.79,0.45-1.19,0.67c-0.23,0.15-0.47,0.3-0.73,0.43c-6.42,3.8-12.67,7.9-18.65,12.38
	c-4.31,3.33-8.42,6.93-12.34,10.71c-4.15,4.16-8.03,8.61-11.73,13.18c-1.04,1.38-2.01,2.8-2.96,4.24c-1.59,2.41-3.85,4.45-6.28,5.99
	c-1.85,1.16-3.84,2.03-5.97,2.55c-0.64,0.16-1.38,0.3-2.09,0.3C400.46,448.32,400.06,448.28,399.69,448.17z"/>
<path d="M556.61,363.56c0.19-2.02,1.13-4.17,3.04-5.11c0.97-0.48,2.11-0.59,3.21-0.47c-0.8,1.26-1.6,2.51-2.39,3.77
	c-1.04,1.65-2.01,3.34-2.95,5.05c-0.2,0.02-0.4,0.04-0.6,0.06C556.62,365.81,556.5,364.7,556.61,363.56z"/>
<path d="M497.79,377.17c-2.15,0-4.34-0.43-6.34-1.21c-0.85-0.33-1.71-0.73-2.54-1.21c-0.02,0.02-0.05,0.04-0.07,0.05
	c0.02-0.02,0.05-0.04,0.07-0.05c0,0,0,0,0,0c-0.36,0.27-0.72,0.52-1.1,0.77c-0.4,0.27-0.87,0.63-1.36,0.72
	c-3.32,0.56-5.94-3-7.28-5.54c-2.03-3.83-2.23-8.71-1.22-12.84c1.53-6.23,3.13-12.41,5.22-18.48c2.12-6.17,4.29-12.48,7.44-18.21
	c3.51-6.39,7.55-12.32,12.41-17.76c4.21-4.73,8.98-9.02,13.81-13.11c2.61-2.21,5.27-4.38,8.12-6.29c1.24-0.83,2.54-1.73,3.92-2.4
	c0.46-0.26,0.93-0.5,1.4-0.75c1.27-0.67,2.6-1.24,3.93-1.81c3.24-1.37,6.55-2.44,9.96-3.27c1.96-0.47,3.98-0.86,6-1
	c3.74-0.24,7.34,1.5,9.42,4.64c1.72,2.61,1.87,5.61,1.85,8.63c-0.02,3.04-0.3,6.07-0.67,9.09c-0.78,6.3-2.01,12.53-2.97,18.81
	c-0.93,6.06-1.56,12.16-3.34,18.05c-0.89,2.96-1.98,5.92-3.46,8.64c-1.82,3.35-3.99,6.38-6.41,9.33
	c-4.17,5.09-9.23,9.45-14.71,13.08c-2.56,1.7-5.28,3.15-7.97,4.63c-2.83,1.55-5.73,2.92-8.72,4.13c-2.96,1.2-6.13,1.89-9.24,2.56
	c-2.03,0.43-4.01,0.79-6.09,0.79C497.82,377.17,497.8,377.17,497.79,377.17z M498.51,357.24c1.64-0.38,3.31-0.7,4.95-1.1
	c1.26-0.37,2.49-0.79,3.71-1.27c3.06-1.37,6.01-2.99,8.93-4.63c1.92-1.13,3.78-2.33,5.6-3.63c1.53-1.21,2.98-2.48,4.39-3.82
	c1.61-1.65,3.14-3.35,4.59-5.14c0.73-1,1.43-2.02,2.09-3.06c0.56-1,1.07-2.01,1.54-3.04c0.57-1.47,1.06-2.97,1.5-4.48
	c1.2-5.02,1.76-10.14,2.54-15.23c0.71-4.65,1.57-9.28,2.29-13.93c-0.87,0.41-1.73,0.84-2.59,1.29c-0.1,0.06-0.21,0.12-0.31,0.17
	c-1.52,0.89-2.95,1.92-4.35,2.98c-4.36,3.49-8.55,7.2-12.55,11.08c-2.18,2.24-4.25,4.54-6.23,6.96c-1.76,2.34-3.37,4.76-4.9,7.25
	c-1.36,2.38-2.61,4.79-3.73,7.29c-2.6,6.3-4.87,12.78-6.71,19.35C499.01,355.25,498.76,356.25,498.51,357.24z"/>
<path d="M555.82,478.74c-1.64-0.26-3.23-0.85-4.79-1.39c-3.13-1.08-6.18-2.39-9.23-3.7c-2.87-1.23-5.74-2.48-8.46-4.03
	c-7.18-4.08-13.36-9.7-18.93-15.76c-4.33-4.72-8.85-9.33-12.83-14.36c-0.37-0.24-0.75-0.47-1.13-0.7c0.03,0.02,0.07,0.04,0.1,0.06
	c-0.04-0.02-0.08-0.05-0.12-0.07c-0.23-0.14-0.47-0.28-0.7-0.41c0.16,0.1,0.33,0.19,0.49,0.29c-2.16-1.27-4.34-2.45-6.62-3.47
	c-6.87-2.8-13.91-5.12-21.05-7.14c-7.5-1.99-15.12-3.61-22.81-4.7c-2.19-0.26-4.38-0.49-6.57-0.72c-3.28-0.34-6.39-1.47-9.11-3.33
	c-2.12-1.45-3.93-3.43-5.1-5.71c-0.61-1.18-1.33-3.06-0.7-4.37c0.94-1.96,3.37-3.3,5.21-4.21c3.48-1.72,7.6-2.53,11.45-2.12
	c6.32,0.66,12.56,1.54,18.8,2.76c12.21,2.39,24.24,5.91,35.78,10.55c2.43,0.98,4.84,2,7.13,3.29c1.73,0.97,3.45,1.98,5.14,3.01
	c1.08,0.66,2.13,1.35,3.08,2.17c0.72,0.62,1.25,1.26,1.8,1.96c-0.07-0.09-0.13-0.17-0.2-0.26c1.9,2.46,4.01,4.72,6.12,7.01
	c2.92,3.17,5.76,6.44,8.76,9.53c2.37,2.35,4.86,4.57,7.47,6.66c1.07,0.79,2.16,1.52,3.28,2.22c3.17,1.76,6.48,3.22,9.82,4.64
	c2.51,1.03,5.03,2.02,7.61,2.84c3.17,1,6.19,2.82,8.56,5.15c1.7,1.68,3.33,3.67,4.09,5.97c0.64,1.96-0.68,3.49-2.03,4.78
	c-2.09,1.97-5.16,3.13-7.95,3.56c-1.08,0.17-2.15,0.25-3.22,0.25C557.92,478.99,556.87,478.91,555.82,478.74z"/>
<path d="M574.78,486.62c-3.04-0.88-6-2.02-9.04-2.92c-1.46-0.43-2.93-0.84-4.4-1.25c-2.15-0.61-4.16-1.63-5.97-2.93
	c-2.84-2.03-5.42-4.93-6.49-8.32c-0.25-0.81-0.5-1.78-0.31-2.62c0.19-0.89,0.96-1.64,1.62-2.21c2.63-2.33,6.31-3.29,9.72-3.62
	c1.44-0.14,2.85-0.06,4.25,0.15c-0.48-1.56-0.98-3.12-1.58-4.64c-1.17-2.7-2.49-5.33-3.92-7.9c-0.51-0.86-1.05-1.69-1.63-2.5
	c-0.62-0.75-1.27-1.47-1.95-2.19c-1.98-1.95-4.06-3.79-6.23-5.53c-0.82-0.61-1.65-1.18-2.51-1.72c-1.09-0.59-2.2-1.13-3.33-1.64
	c-2.48-1.01-4.98-1.9-7.55-2.67c-2.52-0.64-5.07-1.13-7.64-1.5c-1.02-0.1-2.03-0.17-3.05-0.21c-1.51,0.08-3.01,0.27-4.52,0.39
	c-2.76,0.22-5.51-0.26-8.14-1.05c-2.01-0.6-4.01-1.67-5.61-3.03c-0.77-0.65-1.88-1.63-2.1-2.69c-0.46-2.32,1.36-4.81,2.69-6.49
	c2.19-2.76,5.51-4.8,8.83-5.86c3.42-1.09,7.19-1.15,10.75-1.06c3.23,0.08,6.49,0.71,9.65,1.33c6.24,1.22,12.51,3.46,18.17,6.34
	c5.86,2.99,11,7.6,15.53,12.34c3.04,3.17,5.29,6.78,7.36,10.64c2.12,3.97,4.04,8.14,5.34,12.45c0.9,2.97,1.87,5.92,2.75,8.9
	c0.58,2,1.18,3.97,1.93,5.9c0.55,1.2,1.19,2.38,1.63,3.62c1.33,3.76,0.25,8.38-2.93,10.92c-1.74,1.39-3.73,2.28-5.97,2.43
	c-0.22,0.02-0.43,0.02-0.65,0.02C577.87,487.48,576.33,487.07,574.78,486.62z"/>
<path d="M523.1,371.27c1.35-1.48,2.82-2.77,4.52-3.84c4.06-2.55,8.68-3.01,13.33-2.3c2.13,0.32,4.23,1.28,6.18,2.15
	c0.78,0.34,1.53,0.77,2.25,1.24c-0.77,0.17-1.54,0.35-2.31,0.52c-0.25,0.05-0.49,0.11-0.74,0.16c-2.9-0.01-5.79,0.28-8.68,0.59
	c-3.96,0.43-7.94,1.23-11.82,2.11c-1.33,0.3-2.66,0.6-3.98,0.92C522.25,372.26,522.7,371.71,523.1,371.27z"/>
<path d="M448.17,298.89c-0.69-0.11-1.35-0.26-1.99-0.43c-2.24,0.04-4.51-0.51-6.44-1.49c-2.09-1.05-3.86-2.58-5.24-4.45
	c-1.66-2.23-2.49-4.72-3.2-7.37c-1.25-4.7-0.05-9.65,1.86-13.95c0.29-0.66,0.64-1.3,1.02-1.93c0.51-0.35,0.99-0.73,1.45-1.15
	c1.21-1.11,2.19-2.43,3.05-3.84c1.7-1.34,3.6-2.4,5.55-3.08c3.24-1.12,6.54-1.67,9.98-1.39c1.76,0.15,3.45,0.57,5.13,1.09
	c2.6,0.8,5.34,2.23,7.36,4.06c3.25,2.95,5.94,6.99,6.15,11.53c0.22,4.89-1.25,9.43-4.14,13.38c-4.01,5.45-10.81,9.25-17.67,9.25
	C450.08,299.12,449.13,299.04,448.17,298.89z"/>
<path d="M504.39,283.99c-6.58-2.2-12.43-6.8-14.24-13.76c-1.21-4.63-0.34-9.46,2.01-13.59c0.94-1.64,2.2-3.14,3.68-4.35
	c1.01-1.19,2.16-2.25,3.38-3.17c2.08-1.55,4.34-2.62,6.77-3.53c4.25-1.59,9.62-1.75,13.91-0.23c4.64,1.64,8.55,4.46,11.12,8.71
	c2.32,3.84,3.34,8.56,2.51,13c-0.74,3.96-2.51,8.08-5.24,11.09c-1.54,1.68-3.18,3.16-5.13,4.33c-1.95,1.17-4,1.85-6.19,2.39
	c-1.41,0.35-2.89,0.51-4.37,0.51C509.79,285.4,506.95,284.85,504.39,283.99z M512.32,265.51c0.21-0.02,0.41-0.03,0.62-0.05
	c0.02,0,0.05-0.01,0.07-0.01c0,0,0.01,0,0.01,0c0.01-0.01,0.03-0.03,0.04-0.04c0.09-0.1,0.18-0.2,0.27-0.3
	c0.03-0.05,0.06-0.09,0.09-0.14c0.12-0.24,0.24-0.47,0.35-0.71c-0.03-0.01-0.05-0.02-0.08-0.03c-0.13-0.01-0.25-0.01-0.38-0.02
	c-0.08,0-0.16,0.01-0.24,0.02c-0.15,0.03-0.29,0.06-0.44,0.09c-0.24,0.08-0.47,0.16-0.71,0.24c-0.26,0.13-0.52,0.26-0.78,0.39
	c-0.03,0.02-0.05,0.04-0.08,0.05c-0.01,0.01-0.02,0.02-0.04,0.03c-0.04,0.08-0.07,0.15-0.11,0.23c0.13,0.05,0.27,0.09,0.4,0.13
	c0.15,0.03,0.3,0.06,0.46,0.09C511.97,265.49,512.15,265.5,512.32,265.51z"/>
<path d="M500.33,280.31c-0.84-0.53-1.61-1.13-2.33-1.8c-1.88-0.33-3.7-1.07-5.25-2.2c-3.55-2.6-5.25-6.6-5.24-10.93
	c0.01-4.03,1.87-7.96,4.39-11.02c2.49-3.03,5.85-5.34,9.52-6.71c4.34-1.63,8.73-2.06,13.3-1.38c3.48,0.52,7.04,2.48,9.52,4.94
	c2.72,2.7,4.4,6.01,5.24,9.74c1.63,7.22-2.13,14.9-7.98,19.09c-2.91,2.09-6.26,3.27-9.82,3.55c-0.37,0.03-0.74,0.04-1.11,0.04
	C506.89,283.63,503.39,282.25,500.33,280.31z"/>
<path d="M459.3,385.45c-3.13-1.43-5.8-3.51-8.08-6.06c-2.71-3.03-4.23-6.79-5.27-10.66c-0.98-3.68-0.81-7.71,0.21-11.34
	c1.02-3.63,3.11-6.65,5.8-9.24c2.38-2.29,5.7-3.72,8.84-4.53c3.7-0.95,7.67-0.87,11.33,0.26c0.76,0.23,1.51,0.5,2.24,0.81
	c1.79,0.49,3.49,1.27,4.94,2.26c2.71,1.85,4.91,4.83,6.23,7.81c0.11,0.21,0.22,0.43,0.33,0.64c1.37,2.76,1.82,5.67,1.61,8.56
	c0,0.64-0.04,1.28-0.1,1.93c-0.55,5.98-3.35,12.14-7.82,16.18c-2.49,2.24-5.54,4.02-8.85,4.7c-1.25,0.26-2.51,0.38-3.75,0.38
	C464.33,387.14,461.75,386.58,459.3,385.45z"/>
<path d="M472.3,457.05c-2.27-0.75-4.17-1.93-6.01-3.43c-3.79-3.09-5.55-8.13-5.94-12.85c-0.31-3.72,0.49-7.85,2.21-11.49
	c0.13-0.45,0.28-0.88,0.44-1.32c0.81-2.24,2-4.49,3.57-6.29c1.76-2.02,3.74-3.47,6.06-4.78c1.92-1.1,4.33-1.69,6.52-1.92
	c2.24-0.23,4.47-0.09,6.66,0.46c1.53,0.38,2.93,0.97,4.36,1.61c1.01,0.45,1.94,1.09,2.85,1.69c1.22,0.8,2.54,1.94,3.45,3.08
	c2.96,3.68,4.84,8.01,4.63,12.82c-0.14,3.16-0.95,6.07-2.19,8.91c-1.41,3.6-3.73,6.8-6.82,9.13c-1.35,1.02-2.87,1.87-4.49,2.51
	c-2.52,1.33-5.28,2.24-8.1,2.56c-0.68,0.08-1.36,0.12-2.05,0.12C475.69,457.84,473.94,457.59,472.3,457.05z"/>
<path d="M252.02,265.15c-7.06-1.17-13.81-3.57-19.94-7.29c-3.21-1.95-6.11-4.45-8.45-7.4c-1.98-2.47-3.63-5.21-5.23-7.94
	c-1.54-2.62-3.03-5.28-4.14-8.11c-1.22-3.08-2.2-6.3-2.89-9.54c-1.33-6.24-1.85-12.61-2.42-18.96c-0.53-6.01-0.63-12.04-0.41-18.06
	c0.18-5.06,0.38-10.12,0.62-15.17c0.12-2.47,0.18-4.93,0.35-7.4c0.14-1.95,0.33-3.85,0.85-5.74c0.98-3.55,4.04-6.1,7.5-7.05
	c3.05-0.83,6.62,0.17,8.95,2.24c0.65,0.58,1.27,1.2,1.89,1.81c0.97,0.96,1.87,1.96,2.75,2.99c1.49,1.76,2.92,3.55,4.5,5.23
	c1.54,1.63,3.14,3.21,4.75,4.76c1.73,1.59,3.49,3.12,5.36,4.53c4.13,2.91,8.53,5.36,12.75,8.14c4.76,3.13,8.72,7.05,12.64,11.15
	c1.82,1.91,3.55,3.87,5.2,5.93c2.21,2.77,3.99,5.72,5.42,8.95c1.35,3.04,2.21,6.42,2.82,9.68c0.57,3.05,0.92,6.07,1.04,9.16
	c0.1,5.57-0.58,11.06-1.19,16.6c-0.19,2.01-0.32,4.03-0.58,6.02c-0.37,2.72-1.55,5.45-3.08,7.72c-1.41,2.1-3.21,3.86-5.39,5.16
	c-0.99,0.6-2.49,1.24-3.68,0.93c-1.6-0.44-2.92-2.09-3.85-3.35c-3.03,3.65-8.08,5.28-12.86,5.28
	C254.2,265.42,253.09,265.33,252.02,265.15z M255.42,245.61c2.11,0.36,4.08,0.98,6.03,1.86c1.07,0.48,2.1,1.06,3.09,1.71
	c-0.07-1.98,0.17-3.97,0.37-5.94c0.26-2.54,0.57-5.08,0.85-7.62c0.24-2.55,0.46-5.13,0.42-7.69c-0.09-1.69-0.26-3.35-0.5-5.02
	c-0.32-1.72-0.72-3.41-1.2-5.09c-0.29-0.86-0.6-1.71-0.95-2.55c-0.25-0.5-0.52-0.99-0.8-1.47c-0.71-1.05-1.47-2.06-2.26-3.05
	c-2.44-2.9-5.11-5.66-7.84-8.3c-0.96-0.87-1.94-1.7-2.97-2.49c-3.45-2.41-7.16-4.4-10.67-6.72c-3.7-2.44-7.24-5.06-10.51-8.05
	c-0.16,4.13-0.28,8.25-0.19,12.38c0.3,6.8,0.87,13.66,1.91,20.39c0.41,2.15,0.92,4.27,1.51,6.38c0.42,1.27,0.88,2.52,1.4,3.76
	c1.16,2.33,2.46,4.58,3.81,6.8c0.74,1.15,1.49,2.29,2.31,3.38c0.26,0.29,0.52,0.57,0.78,0.85c0.42,0.37,0.86,0.73,1.3,1.08
	c0.79,0.53,1.59,1.03,2.4,1.52c1.38,0.7,2.78,1.34,4.2,1.94c1.29,0.48,2.59,0.91,3.92,1.28
	C253.04,245.18,254.23,245.41,255.42,245.61z"/>
<path d="M307.46,532.86c-2.05-0.31-3.88-1.91-5.28-3.33c-3.43-3.5-5.06-8.24-5.44-13.03c-0.44-5.4-1.02-10.77-1.54-16.15
	c-0.56-5.86-0.91-11.73-1.49-17.58c-0.61-6.19-1.29-12.36-2.16-18.52c-1.72-12.11-3.8-24.16-5.45-36.28
	c-0.81-5.98-1.63-11.95-2.31-17.94c-0.65-5.77-1.08-11.57-1.67-17.35c-0.65-6.48-1.35-12.95-2.13-19.42
	c-0.78-6.5-1.48-13.01-2.44-19.48c-1.91-12.81-4.05-25.59-5.73-38.43c-1.23-9.43-2.52-18.83-4.06-28.21
	c-0.02-0.12-0.04-0.24-0.06-0.36c-0.43-2.54-0.89-5.08-1.59-7.57c-0.31-0.93-0.65-1.84-1.03-2.74c-1.06-2.15-2.23-4.22-2.85-6.55
	c-0.71-2.63-0.82-5.34-0.54-8.03c0.16-1.5,0.56-2.97,1.15-4.35c0.45-1.06,1.3-2.58,2.54-2.87c2.26-0.53,4.73,0.27,6.79,1.14
	c4.11,1.74,7.35,5.32,9.35,9.22c1.64,3.19,2.98,6.37,3.97,9.81c0.89,3.09,1.36,6.3,1.88,9.46c-0.07-0.43-0.15-0.87-0.22-1.3
	c1.02,6.08,2.03,12.17,2.86,18.28c0.84,6.21,1.58,12.43,2.44,18.64c1.76,12.75,4.14,25.41,5.69,38.19
	c1.56,12.82,3.11,25.64,4.29,38.5c1.07,11.8,2.54,23.54,4.24,35.27c0.87,5.98,1.79,11.95,2.71,17.92c0.96,6.21,2,12.41,2.75,18.65
	c1.42,11.84,2.25,23.72,3.39,35.58c0.25,2.68,0.51,5.36,0.76,8.03c0.27,2.95,0.58,5.91,0.07,8.86c-0.63,3.7-2.3,7.18-4.9,9.89
	c-0.89,0.93-2.24,2.07-3.63,2.07C307.7,532.89,307.58,532.88,307.46,532.86z"/>
<path d="M394.82,406.02c-2.18-0.5-3.85-2.41-5.18-4.07c-2.16-2.71-3.27-6.19-3.81-9.56c-0.3-1.87-0.19-3.84-0.24-5.74
	c-0.04-1.62,0.02-3.24,0.08-4.85c0.15-4.16,0.29-8.31,0.31-12.47c0.03-6.1,0.38-12.22,0.6-18.32c0.18-4.9,0.33-9.8,0.69-14.69
	c0.21-2.98,0.51-5.95,0.69-8.93c0.18-3.08,0.26-6.18,0.38-9.27c0.28-7.35,0.84-14.64,1.62-21.95c0.51-5.09,0.97-10.17,1.64-15.24
	c0.61-4.62,1.39-9.22,1.92-13.85c0.17-1.78,0.32-3.56,0.47-5.33c0.29-3.42,1.32-6.53,3.09-9.47c1.21-2,2.94-3.97,4.93-5.22
	c1.18-0.74,2.31-1.35,3.69-1.02c-0.83-0.2-0.23-0.1,0-0.03c0.22,0.07,0.44,0.17,0.65,0.27c0.63,0.31,1.21,0.73,1.74,1.18
	c1.96,1.67,3.24,3.88,4.28,6.2c1.97,4.43,1.44,9.16,1.01,13.83c-0.73,7.91-2.19,15.73-3.07,23.63c-0.41,4.07-0.79,8.14-1.21,12.21
	c-0.56,5.98-0.8,11.98-1.03,17.98c-0.2,5.42-0.63,10.8-1.01,16.21c-0.35,4.99-0.5,10-0.68,15c-0.22,6.01-0.56,12.03-0.57,18.05
	c-0.01,4.13-0.17,8.24-0.32,12.36c-0.06,1.6-0.09,3.19-0.05,4.79c0.05,1.96,0.12,3.88-0.31,5.82c-0.81,3.67-2.48,7-5.1,9.71
	c-0.8,0.82-1.73,1.53-2.73,2.1c-0.56,0.32-1.38,0.71-2.1,0.71C395.06,406.06,394.94,406.05,394.82,406.02z"/>
<path d="M399.82,265.38c-3.79-0.58-7.46-2.87-9.91-5.77c-2.77-3.28-4.1-7.46-5.22-11.54c-0.86-3.13-1.32-6.42-1.77-9.62
	c-0.91-6.48-1.54-12.93-1.69-19.48c-0.07-3.28,0.07-6.66,0.81-9.86c0.82-3.51,1.87-6.86,3.13-10.23c1.91-5.12,4.07-10.17,6.21-15.19
	c2.01-4.74,4.48-9.25,7.41-13.48c3.2-4.63,6.58-9.19,10.52-13.22c3.3-3.37,6.9-6.36,10.54-9.33c1.76-1.45,3.49-2.92,5.15-4.49
	c0.95-0.91,1.85-1.86,2.82-2.76c0.93-0.85,1.9-1.59,2.98-2.23c2.73-1.6,6.29-1.67,9.13-0.34c3.57,1.67,5.98,5.51,5.76,9.47
	c-0.05,0.93-0.2,1.86-0.32,2.79c-0.2,2.27-0.31,4.55-0.3,6.83c0.18,3.75,0.65,7.49,1.21,11.2c0.43,2.39,0.99,4.74,1.5,7.12
	c0.64,2.99,1.14,6.01,1.6,9.04c0.86,5.65,1.5,11.27,1.62,16.98c0.06,2.75-0.06,5.5-0.15,8.24c-0.12,3.64-0.31,7.25-0.81,10.87
	c-0.79,5.75-3,11.26-5.64,16.38c-1.33,2.58-2.75,5.11-4.35,7.52c-1.98,2.96-4.2,5.6-6.74,8.09c-1.99,1.96-4.18,3.74-6.42,5.4
	c-2.83,2.11-5.86,3.88-9.38,4.53c-3.29,0.61-7.11,0.51-9.87-1.48c-0.1,0.6-0.23,1.18-0.41,1.76c-0.27,0.84-0.7,1.84-1.52,2.29
	c-0.98,0.55-2.16,0.73-3.34,0.73C401.5,265.61,400.61,265.5,399.82,265.38z M407.03,251.89c0.77-1.91,1.76-3.68,3-5.37
	c1.87-2.54,4.51-4.22,6.96-6.14c1.32-1.12,2.59-2.3,3.81-3.53c0.61-0.68,1.2-1.38,1.76-2.11c1.19-1.72,2.29-3.49,3.32-5.32
	c1.07-2.01,2.08-4.06,2.96-6.16c0.45-1.22,0.84-2.45,1.18-3.7c0.31-1.42,0.53-2.85,0.7-4.29c0.44-5,0.56-10.09,0.47-15.1
	c-0.24-5.45-1.02-10.86-1.9-16.24c-0.49-2.79-1.15-5.54-1.73-8.32c-0.52-2.46-0.93-4.94-1.27-7.43c-1.05,0.96-2.08,1.95-3.09,2.96
	c-2.28,2.5-4.35,5.16-6.37,7.88c-1.7,2.4-3.31,4.83-4.78,7.37c-2.96,5.72-5.29,11.79-7.67,17.76c-0.97,2.55-1.87,5.11-2.62,7.74
	c-0.24,1.11-0.44,2.22-0.6,3.35c-0.1,1.84-0.1,3.68-0.06,5.52c0.28,5.96,0.99,11.85,1.88,17.74c0.36,2,0.77,3.98,1.29,5.95
	c0.34,0.99,0.7,1.95,1.11,2.91C406.05,248.8,406.61,250.33,407.03,251.89z"/>
<path d="M290.09,390.37c-2.14,0-4.37-0.62-6.3-1.51c-2.01-0.94-3.78-2.12-5.44-3.6c-1.67-1.48-2.84-3.35-4.1-5.17
	c-0.09-0.13-0.17-0.25-0.26-0.37c-3.31-4.72-6.77-9.35-10.31-13.89c-2.12-2.71-4.18-5.48-6.4-8.1c-1.97-2.33-4.02-4.6-6.08-6.86
	c-9.44-10.29-19.48-20.09-30.04-29.23c0.32,0.27,0.65,0.55,0.97,0.82c-7.63-6.44-15.31-12.8-23.24-18.86
	c-3.79-2.9-7.55-5.82-11.34-8.71c-3.89-2.97-7.93-5.72-12.03-8.4c-7.87-5.12-15.74-10.43-24.18-14.58c0.23,0.11,0.45,0.21,0.68,0.32
	c-4.23-2.08-7.71-5.2-9.8-9.48c-0.69-1.42-1.07-3.1-1.07-4.68c0-1.1,0.27-2.53,1.28-3.17c1.89-1.19,4.01-1.76,6.18-2.18
	c4.23-0.83,8.61,0,12.43,1.89c2.9,1.43,5.72,3.01,8.5,4.67c0.4,0.35,0.81,0.69,1.21,1.04c2.23,1.92,4.48,3.86,6.86,5.59
	c1.39,1.02,2.8,2,4.25,2.93c1.95,1.26,4.15,2.13,6.41,2.31c2.05,1.36,4.09,2.74,6.09,4.15c4.76,3.36,9.31,6.98,13.93,10.52
	c4.94,3.79,9.88,7.56,14.65,11.56c5,4.19,10.14,8.23,14.97,12.6c9.23,8.33,18.14,16.98,26.59,26.1c4.06,4.38,8.03,8.83,11.71,13.55
	c3.77,4.84,7.44,9.74,11.08,14.67c1.38,1.87,2.72,3.77,4.04,5.68c1.29,1.86,2.24,3.77,2.98,5.91c1.07,3.09,1.27,6.57,0.58,9.76
	c-0.3,1.39-0.9,2.78-1.87,3.83c-0.72,0.77-1.65,0.86-2.63,0.89C290.29,390.37,290.19,390.37,290.09,390.37z"/>
<path d="M187.29,284.13c-1.51-0.09-3.08-0.62-4.44-1.25c-2.1-0.97-4.04-2.27-5.66-3.93c-1.99-2.03-3.29-4.35-4.5-6.89
	c-2.34-4.91-4.12-10.04-5.88-15.18c1.31,1.16,2.63,2.3,3.95,3.44c2.23,1.92,4.48,3.86,6.86,5.59c1.39,1.02,2.8,2,4.25,2.93
	c2.19,1.41,4.68,2.34,7.23,2.34c1.04,0,2.08-0.15,3.13-0.49c0.3-0.1,0.59-0.2,0.88-0.32c0.57,2.89,0.56,5.97-0.18,8.8
	c-0.41,1.56-1.19,3.89-2.78,4.67c-0.52,0.25-1.12,0.32-1.73,0.32C188.04,284.18,187.66,284.15,187.29,284.13z"/>
<path d="M102.8,291.88c-7.18-0.02-14.16-1.43-20.89-3.9c-5.94-2.18-11.26-5.93-16.29-9.69c-5.45-4.06-10.25-8.81-15.27-13.38
	c-3.47-3.15-5.77-7.17-6.75-11.74c-0.21-1.1-0.36-2.2-0.35-3.33c0.01-0.77,0.06-1.72,0.53-2.37c1.05-1.45,3.11-2,4.78-2.31
	c3.25-0.6,6.87,0.15,9.83,1.54c3.35,1.58,5.95,4.08,8.62,6.58c2,1.88,3.98,3.78,6.04,5.6c3.07,2.55,6.26,4.94,9.57,7.17
	c1.48,0.93,2.97,1.81,4.52,2.61c1.24,0.54,2.5,1.03,3.78,1.48c1.58,0.47,3.17,0.88,4.79,1.24c1.52,0.26,3.04,0.45,4.58,0.58
	c3.95,0.15,7.89,0.03,11.83-0.18c1.52-0.14,3.03-0.35,4.53-0.63c2.52-0.6,4.96-1.37,7.41-2.22c3.35-1.22,6.64-2.56,9.86-4.11
	c0.46-0.25,0.91-0.51,1.35-0.79c-0.24,0.17-0.49,0.34-0.73,0.51c2.66-1.85,5.51-3.57,8.49-4.86c1.56-0.67,3.36-1.24,5.08-1.03
	c0.87,0.11,1.41,0.55,1.97,1.18c1.44,1.64,2.13,3.86,2.53,5.95c0.89,4.69-1.09,9.9-4.45,13.17c-2.71,2.64-6.36,4.12-9.77,5.63
	c-5.33,2.36-10.95,4.41-16.64,5.72c-5.96,1.37-12.14,1.57-18.24,1.57C103.28,291.88,103.04,291.88,102.8,291.88z"/>
<path d="M143.71,262.47c-1.13-0.19-2.2-0.49-3.27-0.84c-3.07-1.05-6-2.41-8.55-4.46c-1.25-1.01-2.55-1.97-3.83-2.95
	c-1.68-1.29-3.3-2.65-5.04-3.86c-0.85-0.52-1.71-0.99-2.6-1.43c-1.78-0.83-3.58-1.59-5.42-2.25c-0.77-0.23-1.54-0.44-2.32-0.62
	c-1.54-0.25-3.08-0.4-4.64-0.51c-2.2-0.11-4.39-0.16-6.59-0.06c-1.19,0.11-2.36,0.25-3.54,0.45c-4.82,1.12-9.5,2.9-14.19,4.47
	c-4.85,1.62-9.76,3-14.65,4.47c-2.29,0.69-4.57,1.44-6.85,2.17c-3.62,1.16-7.28,1.54-11.02,0.73c-2.95-0.64-5.69-2.05-7.71-4.32
	c-0.93-1.04-2.01-2.72-1.68-4.2c0.19-0.84,0.8-1.66,1.28-2.33c0.86-1.21,1.92-2.28,3.01-3.29c1.27-1.14,2.58-2.17,4.05-3.06
	c1.9-1.15,3.95-1.81,6.06-2.44c2.64-0.79,5.25-1.69,7.9-2.49c2.78-0.84,5.58-1.58,8.35-2.43c2.88-0.88,5.72-1.87,8.58-2.83
	c5.72-1.9,11.4-3.96,17.43-4.55c3.01-0.3,6-0.31,9.01-0.17c2.86,0.13,5.73,0.3,8.55,0.84c3.09,0.59,6.06,1.56,8.97,2.76
	c3.43,1.4,6.77,3.05,9.83,5.15c2.22,1.52,4.28,3.29,6.42,4.93c2.06,1.57,4.2,3.1,5.8,5.18c3.22,4.18,4.75,10.03,2.69,15.07
	c-0.4,0.97-1,2.2-2.01,2.67c-0.63,0.28-1.36,0.38-2.09,0.38C144.98,262.65,144.31,262.57,143.71,262.47z"/>
<path d="M166.13,315.14c-0.74-0.22-1.47-0.49-2.2-0.79c-1.38-0.57-2.67-1.36-3.83-2.3c-2.47-1.75-4.59-4.08-6.04-6.69
	c-1.19-2.14-1.85-4.57-1.95-7.01c-0.11-2.66,0.39-5.07,1.24-7.57c0.36-1.06,1.04-2.11,1.65-3.04c0.55-0.84,1.2-1.77,1.94-2.47
	c1.66-1.57,3.38-2.94,5.46-3.92c2.6-1.23,5.43-1.96,8.29-2.21c4.21-0.37,8.19,0.32,11.89,2.43c4.2,2.39,7.1,6.85,8.11,11.51
	c0.94,4.35,0.63,9.23-1.6,13.17c-1.12,1.98-2.47,3.85-4.25,5.3c-0.61,0.5-1.23,0.95-1.87,1.35c-0.61,0.55-1.27,1.06-2,1.49
	c-1.88,1.14-3.91,1.69-6.08,1.96c-0.63,0.08-1.26,0.12-1.89,0.12C170.65,316.48,168.34,315.95,166.13,315.14z"/>
<path d="M211.58,296.65c-3.71-1.8-6.58-4.75-8.45-8.39c-1.34-2.61-1.83-5.51-1.83-8.41c-0.47-3.08-0.2-6.35,0.99-9.07
	c0.89-2.03,1.96-4.06,3.55-5.65c2.01-2.01,4.17-3.44,6.71-4.72c1.43-0.73,3.33-1.23,4.92-1.44c2.03-0.27,4.03-0.36,6.05-0.12
	c1.64-0.02,3.2,0.17,4.84,0.75c2.61,0.91,4.71,2.49,6.61,4.48c0.79,0.84,1.53,1.74,2.19,2.71c2.87,3.7,4,8.58,3.83,13.18
	c-0.18,5.21-2.37,9.93-5.92,13.68c-3.48,3.68-8.38,5.3-13.33,5.3C218.19,298.97,214.65,298.14,211.58,296.65z"/>
<path d="M107.55,421.2c-4.2-0.37-8.36-1.21-12.43-2.32c-4.69-1.28-9.07-3.41-13.44-5.51c0.27,0.13,0.54,0.26,0.81,0.39
	c-2.11-1.01-4.23-2.01-6.36-2.97c-1.05-0.48-2.13-0.9-3.18-1.38c-2.06-0.94-3.9-2.15-5.6-3.65c-1.98-1.76-3.71-4.01-4.74-6.47
	c-0.51-1.22-0.89-2.59-0.76-3.92c0.09-0.85,0.4-1.99,1.23-2.43c0.56-0.3,1.07-0.7,1.63-1.01c1.18-0.67,2.46-1.16,3.76-1.53
	c3.29-0.91,6.81-0.77,10.11,0.04c2.31,0.57,4.56,1.74,6.71,2.75c2.1,0.98,4.18,1.97,6.27,2.97c2.5,1.19,5,2.31,7.61,3.24
	c1.82,0.54,3.64,0.99,5.49,1.38c2.21,0.39,4.42,0.67,6.66,0.84c2.07,0.1,4.14,0.11,6.21,0.03c1.29-0.12,2.57-0.29,3.86-0.52
	c1.47-0.33,2.91-0.72,4.34-1.19c1.48-0.59,2.92-1.25,4.36-1.95c3.47-1.86,6.8-3.96,10.05-6.18c2.4-1.76,4.71-3.61,6.94-5.58
	c1.07-1.03,2.12-2.09,3.26-3.04c1.61-1.35,3.54-2.4,5.48-3.18c2.76-1.12,5.93-1.76,8.91-1.34c0.66,0.09,1.45,0.25,1.94,0.76
	c0.72,0.75,1.09,1.67,1.42,2.64c1.07,3.18,0.29,7.11-0.96,10.11c-0.88,2.11-2.1,4.04-3.62,5.74c-1.19,1.32-2.58,2.51-3.9,3.7
	c-2.28,2.04-4.66,3.94-7.14,5.74c-5.53,4.01-11.44,7.62-17.72,10.34c-6.43,2.79-13.34,3.83-20.28,3.83
	C112.16,421.52,109.84,421.41,107.55,421.2z"/>
<path d="M68.26,399.75c-1.8-0.02-4.92-0.34-5.83-2.26c-0.84-1.77-0.72-4.25-0.41-6.1c0.74-4.53,3.11-8.64,6.56-11.66
	c2.16-1.88,4.34-3.74,6.58-5.54c1.06-0.85,2.14-1.67,3.23-2.48c0.52-0.39,1.06-0.77,1.59-1.14c0.34-0.24,0.67-0.47,1-0.7
	c0.91-0.63,1.81-1.25,2.73-1.87c5.29-3.56,10.67-6.94,16.63-9.28c3.44-1.36,7.03-2.4,10.61-3.37c3.45-0.93,6.95-1.8,10.48-2.37
	c6.48-1.06,13.42-1.16,19.89,0.04c5.79,1.07,11.58,2.76,17.1,4.81c5.34,1.99,10.12,5.29,13.78,9.66c2.66,3.18,4.46,7.75,3.99,11.93
	c-0.58,5.15-5.36,9.17-10.54,8.79c-0.9-0.07-1.94-0.35-2.52-1.09c-0.62-0.79-0.97-1.76-1.33-2.71c-0.47-0.29-0.93-0.58-1.37-0.9
	c-1.47-1.06-2.62-2.38-3.8-3.72c-0.35-0.36-0.7-0.71-1.07-1.05c-0.37-0.29-0.74-0.56-1.12-0.83c-0.55-0.33-1.11-0.64-1.68-0.94
	c-1.06-0.47-2.15-0.88-3.25-1.26c-3.66-1.16-7.34-2.27-11.09-3.07c-1.28-0.22-2.56-0.39-3.85-0.5c-2.16-0.09-4.33-0.07-6.49,0.04
	c-1.9,0.17-3.78,0.43-5.66,0.78c-4.52,1-9,2.23-13.39,3.69c-1.93,0.73-3.81,1.57-5.66,2.49c-3.79,2.07-7.35,4.47-10.92,6.9
	c0.35-0.25,0.71-0.49,1.06-0.74c-0.73,0.51-1.47,1.02-2.2,1.54c0.35-0.25,0.71-0.49,1.07-0.74c-2.27,1.58-4.44,3.29-6.57,5.05
	c-2.28,1.88-4.43,4.04-6.94,5.6c-3.02,1.88-6.77,3.03-10.35,3.03C68.42,399.75,68.34,399.75,68.26,399.75z"/>
<path d="M283.7,425.09c-1.83-0.06-3.67-0.27-5.42-0.81c-1.74-0.54-3.42-1.27-5.12-1.94c-5.35-2.13-10.81-3.97-16.25-5.86
	c-1.6-0.56-3.2-1.1-4.81-1.63c-5.7-1.85-11.45-3.43-17.3-4.76c-6.07-1.39-12.1-2.95-18.16-4.42c-6.09-1.47-12.23-2.78-18.31-4.31
	c-5.65-1.42-11.26-3.06-16.98-4.24c-1.35-0.23-2.69-0.41-4.05-0.53c-0.93-0.03-1.85-0.02-2.78-0.01c-1.47,0.01-2.93,0.02-4.39-0.09
	c-3.43-0.28-6.78-1.57-9.55-3.6c-2.11-1.54-4-3.83-4.52-6.44c-0.31-1.51,0.24-3.61,1.71-4.21c0.59-0.46,1.16-0.92,1.76-1.35
	c2.95-2,6.18-3.34,9.71-3.95c1.41-0.24,2.88-0.24,4.32-0.24c0.3,0,0.59,0,0.89,0c1.88-0.01,3.75,0.08,5.62,0.23
	c6.23,0.49,12.36,2.41,18.38,3.97c6.03,1.56,12.09,2.93,18.15,4.37c6.13,1.47,12.24,2.98,18.36,4.48c6.03,1.48,12.08,2.78,18.03,4.6
	c5.95,1.83,11.81,3.91,17.68,5.96c2.62,0.92,5.23,1.82,7.82,2.83c3.3,1.28,6.64,2.45,9.62,4.4c3.49,2.29,6.17,6.07,6.95,10.18
	c0.3,1.54,0.32,3.92-1.04,5c-1.53,1.23-3.8,1.65-5.66,2.01c-1.32,0.25-2.68,0.38-4.03,0.38C284.15,425.1,283.92,425.09,283.7,425.09
	z"/>
<path d="M227.27,400.62c-2.45-0.5-4.75-1.59-6.81-2.98c-2.26-1.52-3.95-3.59-5.67-5.67c-2.81-3.41-5.62-6.82-8.34-10.32
	c-1.46-1.86-2.9-3.74-4.34-5.62c-2.03-2.65-3.21-5.76-3.82-9.02c-0.39-2.13-0.35-4.43,0.11-6.54c0.24-1.11,0.64-2.5,1.63-3.19
	c1.85-1.28,4.77-0.85,6.8-0.45c4.18,0.84,8.11,3.57,10.79,6.82c2.19,2.66,4.21,5.47,6.35,8.18c1.98,2.51,4.03,4.96,6.06,7.42
	c1.07,1.29,2.16,2.56,3.1,3.95c1.14,1.7,1.93,3.61,2.55,5.56c0.89,2.78,1.13,5.95,0.42,8.79c-0.3,1.18-0.77,2.22-1.88,2.78
	c-1.01,0.51-2.19,0.69-3.38,0.69C229.61,401.04,228.37,400.85,227.27,400.62z"/>
<path d="M187.71,366.85c-1.52-0.76-2.94-1.68-4.18-2.73c-1.89-1.58-3.39-3.44-4.51-5.64c-1.27-2.51-1.71-5.12-1.85-7.91
	c-0.06-1.19,0.07-2.43,0.33-3.64c0.16-2.08,0.61-4.03,1.32-6.07c0.75-2.1,2.21-3.93,3.7-5.54c1.45-1.59,3.61-3.07,5.62-3.84
	c4.71-1.81,10-2.5,14.83-0.68c8.35,3.13,13.28,11.82,12.56,20.57c-0.15,1.84-0.54,3.6-1.16,5.26c0.2,1.19,0.23,2.41,0.08,3.63
	c-0.64,5.09-4.65,9.3-9.51,10.67c-1.46,0.41-2.92,0.6-4.36,0.6C195.96,371.52,191.48,369.6,187.71,366.85z"/>
<path d="M137.94,505.88c-3.39-1.76-5.01-5.35-5.24-8.98c-0.06-0.95,0.14-1.98,0.3-2.92c0.46-2.71,1.13-5.36,1.91-7.99
	c1.79-6.12,4.22-11.99,6.85-17.79c5.41-11.96,13.31-23.11,23.51-31.46c5.11-4.19,10.88-7.64,16.65-10.85
	c5.59-3.11,11.32-6.01,17.06-8.84c5.85-2.87,11.72-5.73,17.66-8.39c5.86-2.62,12.07-4.2,18.33-5.58c1.26-0.28,2.53-0.61,3.81-0.73
	c1.48-0.15,2.88-0.12,4.36,0.01c2.34,0.2,4.7,0.97,6.79,2.03c1.52,0.77,2.94,1.79,4.03,3.11c0.6,0.72,1.15,1.67,1.08,2.63
	c-0.05,0.58-0.29,1.17-0.52,1.7c-0.64,1.46-1.54,2.76-2.58,3.96c-2.93,3.32-6.94,5.39-11.23,6.3c0.35-0.07,0.7-0.15,1.05-0.22
	c-4.56,0.97-9.15,2.02-13.58,3.49c-4.97,1.96-9.77,4.33-14.58,6.63c-1.36,0.65-2.72,1.31-4.07,1.97c1.4,1.61,2.5,3.5,3.31,5.43
	c1.61,3.86,1.65,8.16,1.49,12.27c-0.15,4.08-0.96,8.05-2.39,11.88c-1.27,3.4-3.19,6.55-5.18,9.58c-3.57,5.46-7.46,10.79-12.37,15.13
	c-5.01,4.44-11.29,7.26-17.3,10.06c-5.57,2.59-11.41,4.47-17.32,6.09c-3.27,0.9-6.54,1.79-9.87,2.46c-1.7,0.34-3.45,0.56-5.18,0.56
	C142.39,507.4,140.08,506.99,137.94,505.88z M156.23,484.81c2.36-0.69,4.71-1.43,7.02-2.23c4.16-1.6,8.18-3.49,12.15-5.5
	c1.48-0.79,2.92-1.62,4.33-2.52c0.74-0.56,1.47-1.14,2.18-1.75c0.81-0.8,1.59-1.62,2.35-2.47c2.3-2.8,4.39-5.76,6.39-8.78
	c0.79-1.26,1.53-2.55,2.22-3.87c0.29-0.65,0.57-1.3,0.82-1.97c0.2-0.67,0.37-1.33,0.53-2.01c0.13-0.85,0.23-1.69,0.3-2.55
	c0.04-1.32,0.03-2.63-0.02-3.96c-0.03-0.81-0.11-1.6-0.09-2.41c0.02-1.13,0.16-2.21,0.36-3.31c-4.44,2.4-8.8,4.93-13.03,7.73
	c-2.15,1.53-4.23,3.11-6.23,4.83c-1.61,1.53-3.14,3.12-4.62,4.79c-2.15,2.66-4.15,5.4-6.04,8.25c-1.47,2.38-2.84,4.8-4.11,7.3
	C159.13,477.82,157.6,481.29,156.23,484.81z"/>
<path d="M166.39,424.69c-3.12-0.58-6.01-1.93-8.29-3.96c-5.52-3.73-9.41-9.55-9.73-16.4c-0.37-7.88,4.63-15.38,11.3-19.27
	c1.51-0.88,3.15-1.53,4.84-1.95c2.12-0.54,4.59-0.81,6.76-0.45c2.26,0.38,4.55,0.91,6.54,2.09c2.28,1.35,4.31,2.93,6.03,4.95
	c1.24,1.45,2.27,3.04,3.08,4.72c1.18,2.22,1.93,4.71,2.35,7.12c0.57,3.36,0.49,6.66-0.29,9.98c-0.9,3.84-3.31,7.15-6.28,9.64
	c-3.15,2.63-7.12,3.76-11.16,3.77c-0.56,0.05-1.13,0.07-1.69,0.07C168.69,425.01,167.53,424.9,166.39,424.69z"/>
<path d="M351.58,263.9c-6.69-3.4-10.34-10.11-11.33-17.33c-0.81-5.86-0.07-11.83,3-16.97c2.93-4.92,8.09-8.32,13.2-10.62
	c6.95-3.12,15.63-2.25,21.37,2.9c3.91,3.51,7.09,8.24,8.57,13.3c1.05,3.56,1.18,7.29,0.58,10.95c-0.66,3.97-2.68,7.64-5.3,10.64
	c-2.47,2.84-5.51,5-9,6.4c-1.6,0.64-3.32,1.02-5.06,1.16c-2.53,0.94-5.21,1.47-7.87,1.47C356.93,265.79,354.15,265.2,351.58,263.9z"
	/>
<path d="M278.88,299.86c-2.95-0.75-5.48-3.15-7.32-5.45c-1.28-1.6-2.28-3.49-2.98-5.41c-0.62-1.68-0.88-3.4-1.2-5.15
	c-0.06-0.31-0.11-0.62-0.17-0.93c-0.83-1.48-1.4-3.16-2.07-4.68c-1.27-2.89-2.65-5.81-3.45-8.87c-0.89-3.36-0.76-7.12,0.4-10.44
	c-0.06-1.24-0.07-2.49-0.03-3.71c0.11-3.3,1.61-6.1,4.16-8.17c1.49-1.22,3.35-1.77,5.23-1.94c-0.01,0-0.02,0-0.04,0.01
	c0.02,0,0.04-0.01,0.05-0.01c0.06-0.01,0.11-0.01,0.17-0.01c-0.03,0-0.06,0-0.1,0c0.42-0.06,0.84-0.08,1.41-0.07
	c2.61,0.08,5,1.2,6.84,3.02c1.96,1.94,2.56,4.4,3,6.98c0.44,2.57,0.83,5.14,1.26,7.71c0.93,5.61,1.73,11.24,2.67,16.84
	c0.27,1.42,0.55,2.85,0.76,4.28c0.38,2.44,0.03,5.09-0.55,7.47c-0.65,2.69-1.89,5.33-3.79,7.37c-0.48,0.51-1.09,1.07-1.76,1.32
	c-0.27,0.1-0.56,0.14-0.84,0.14C279.99,300.15,279.41,300,278.88,299.86z"/>
<path d="M302.21,320.81c-1.59-0.13-3.13-0.41-4.62-0.86c-0.97-0.14-1.94-0.35-2.89-0.63c-3.98-1.17-7.35-3.96-9.72-7.29
	c-2.25-3.17-3.49-6.66-4.14-10.47c-0.66-3.81,0.22-7.75,1.57-11.29c1.24-3.25,3.66-6.04,6.36-8.16c3.66-2.87,8.54-3.82,13.09-3.57
	c4.29,0.24,8.85,1.88,12.18,4.62c1.69,1.39,3.26,2.9,4.36,4.81c1.22,2.12,2.07,4.37,2.5,6.78c1.12,6.26,0.22,12.72-3.2,18.17
	c-1.07,1.7-2.47,3.37-4.08,4.57c-1.7,1.27-3.71,2.53-5.85,2.91c-1.46,0.26-2.89,0.47-4.36,0.47
	C303.02,320.86,302.62,320.84,302.21,320.81z"/>
<path d="M542.37,368.02c-2.99-0.37-5.87-1.42-8.48-2.9c-1.75-0.99-3.36-2.31-4.65-3.85c-0.7-0.84-1.46-1.95-1.48-3.09
	c-0.02-1.03,0.49-2.07,0.96-2.95c0.9-1.7,2.27-3.1,3.71-4.34c3.79-3.24,8.54-4.67,13.42-5.02c-0.39,0.03-0.78,0.05-1.17,0.08
	c6.41-0.49,12.79-1.28,19.18-1.98c3.43-0.38,6.86-0.68,10.3-0.91c3.55-0.23,7.08,0.36,10.34,1.78c2.69,1.17,5.59,2.95,7.3,5.4
	c0.67,0.98,1.58,2.32,1.33,3.58c-0.26,1.3-0.97,2.41-1.73,3.47c-1.05,1.46-2.41,2.79-3.89,3.81c-1.58,1.09-3.24,2.05-5.05,2.72
	c-1.63,0.6-3.21,1.02-4.93,1.31c-1.12,0.19-2.28,0.2-3.43,0.26c-7.97,0.61-15.9,1.74-23.86,2.48c-1.71,0.16-3.42,0.32-5.13,0.32
	C544.21,368.18,543.29,368.14,542.37,368.02z"/>
<path d="M588.29,373.44c-3.12-2.6-5.05-5.89-6.31-9.71c-0.42-1.27-0.65-2.58-0.76-3.92c-0.01-0.03-0.02-0.07-0.03-0.1
	c-1.25-4.16-0.61-8.73,0.31-12.87c0.86-3.88,2.92-7.57,5.39-10.64c2.68-3.33,6.17-6.03,10.14-7.66c5.68-2.32,12.4-1.54,17.87,1.02
	c7.51,3.53,13.38,10.65,13.46,19.23c0.04,4.54-0.81,8.99-2.51,13.2c-2.7,6.66-8.52,12.01-15.16,14.59
	c-2.76,1.07-5.71,1.62-8.66,1.62C597.08,378.22,592.17,376.67,588.29,373.44z"/>
<path d="M547.82,398.65c-1.4-0.49-2.73-1.16-3.98-1.94c-2.1-1.32-3.72-2.96-5.34-4.82c-1.11-1.27-1.84-2.93-2.54-4.45
	c-0.91-1.99-1.28-4.42-1.28-6.58c0-2.51,0.56-4.93,1.49-7.23c0.05-0.26,0.11-0.53,0.17-0.79c0.51-2.19,1.72-4.13,2.98-5.95
	c1.26-1.83,3.2-3.14,5.02-4.34c3.55-2.35,8.33-3.08,12.49-2.85c4.13,0.24,8.12,1.26,11.55,3.64c4.26,2.95,6.52,7.42,7.39,12.43
	c0.69,3.92-0.36,8.16-1.7,11.82c-0.84,2.3-2.41,4.5-4.08,6.28c-2.02,2.16-4.31,3.7-6.99,4.94c-2.09,0.97-4.4,1.37-6.74,1.37
	C553.37,400.19,550.42,399.57,547.82,398.65z"/>
<path d="M309.97,224.1c-4.29-0.42-8.34-2.42-11.76-4.93c-6.48-4.76-10.5-13.08-10.27-21.08c0.12-4.21,1.11-8.5,2.7-12.4
	c2.56-6.26,6.64-11.86,12.81-14.93c6.49-3.22,14.91-2.39,21.12,1.12c4.68,2.65,8.49,6.91,10.94,11.7c1.65,3.24,2.85,6.45,3.5,10.04
	c0.74,4.07-0.01,8.47-1.4,12.31c-1.54,4.25-4.27,8.24-7.75,11.32c-2.07,2.03-4.5,3.71-7.13,4.88c-3.23,1.44-6.55,2.09-9.99,2.09
	C311.82,224.24,310.9,224.19,309.97,224.1z"/>
<path d="M189.49,291.37c-2.3-0.76-4.58-1.98-6.44-3.53c-1.93-1.61-3.47-3.44-4.86-5.53c-1.34-2-2.18-4.45-3.05-6.69
	c-1.95-5.08-3.9-10.15-5.92-15.2c-2.12-5.29-3.87-10.72-5.98-16.02c-2.68-6.78-5.05-13.69-7.55-20.54c-0.9-2.47-1.82-4.85-2.11-7.48
	c-0.25-2.25-0.25-4.56,0.2-6.79c0.41-2.04,1.01-4.01,2.06-5.82c0.6-1.02,1.53-2.32,2.74-2.65c2.36-0.64,5.14,0.49,7.2,1.53
	c3.43,1.73,6.15,4.56,8.24,7.72c1.87,2.81,2.78,6.32,3.91,9.48c1.05,2.93,2.2,5.83,3.25,8.76c3.72,10.45,7.73,20.8,11.75,31.14
	c0.99,2.56,1.96,5.13,2.96,7.69c1.04,2.65,2.16,5.18,2.7,8.01c0.59,3.13,0.53,6.76-0.38,9.82c-0.58,1.94-1.48,4.06-2.92,5.52
	c-0.77,0.78-1.86,1.06-2.98,1.06C191.35,291.87,190.34,291.65,189.49,291.37z"/>
<path d="M155.87,224.1c-0.26-0.06-0.52-0.12-0.78-0.19c-1.15-0.23-2.29-0.54-3.4-0.93c-7.45-2.62-13.17-9.59-14.93-17.2
	c-1.68-7.26-0.31-16.31,5.16-21.75c2.85-2.84,6.33-4.99,10.2-6.09c3.27-1.34,7.22-1.92,10.59-1.39c2.49,0.39,4.95,0.99,7.16,2.26
	c1.51,0.87,2.84,1.88,4.05,3.03c3.7,2.67,6.67,6.35,8.33,10.58c3.16,8.08,0.82,17.25-4.48,23.85c-2.5,3.1-5.66,5.55-9.33,7.12
	c-2.24,0.96-4.58,1.35-6.93,1.35C159.63,224.75,157.73,224.5,155.87,224.1z"/>
<path d="M167.33,323.23c-4.38-0.34-8.65-1.65-12.38-3.99c-1.58-0.99-2.97-2.19-4.31-3.49c-1.82-1.77-3.06-4.02-4.13-6.29
	c-1.6-3.35-1.7-7.56-1.01-11.15c0.38-1.96,0.9-3.88,1.72-5.72c1.14-2.54,2.59-4.74,4.37-6.85c3.89-4.23,8.7-7.2,14.53-8.01
	c2-0.28,4.11-0.16,6.12,0.06c3.07-0.36,6.24,0.14,8.97,1.68c4.49,2.53,7.32,6.8,8.74,11.57c1.54,3.84,1.89,8.11,1.28,12.18
	c-0.42,2.83-1.48,5.47-2.98,7.86c-0.23,0.48-0.46,0.96-0.71,1.44c-1.77,3.36-4.53,5.98-7.7,8c-3.1,1.98-6.88,2.79-10.55,2.79
	C168.62,323.31,167.97,323.28,167.33,323.23z"/>
<path d="M195.14,374.41c-4.89-0.73-9.62-2.75-13.44-5.9c-2.09-1.72-3.94-3.78-5.39-6.07c-0.72-1.14-1.32-2.32-1.92-3.55
	c-1.25-2.57-1.6-5.4-1.78-8.2c-0.08-1.2,0.09-2.51,0.31-3.71c0.32-1.67,0.66-3.35,1.32-4.93c1.9-4.57,4.93-8.49,9.09-11.23
	c2.47-1.63,5.22-2.7,8.07-3.08c0.52-0.26,1.06-0.5,1.61-0.69c2.71-0.98,5.49-1.24,8.35-1.2c2.52,0.03,5.18,0.31,7.58,1.08
	c7.23,2.31,12.66,8.59,13.98,16.02c1.46,8.18-2.08,16.95-7.45,23.05c-4.47,5.08-10.7,8.62-17.47,8.62
	C197.05,374.62,196.1,374.55,195.14,374.41z M197.74,352.19c0.19-0.14,0.37-0.29,0.56-0.44c0.07-0.07,0.15-0.15,0.22-0.22
	c0.23-0.28,0.45-0.56,0.67-0.85c0.32-0.51,0.63-1.03,0.93-1.55c0.15-0.32,0.29-0.64,0.42-0.96c-0.23,0-0.47,0-0.7,0
	c-0.1,0.01-0.21,0.03-0.31,0.05c0.08-0.02,0.16-0.03,0.24-0.05c-0.01,0-0.02,0-0.03,0c-0.21,0.04-0.42,0.08-0.62,0.11
	c-1.17,0.44-2.35,0.84-3.54,1.21c-0.04,0.02-0.07,0.03-0.11,0.05c-0.05,0.05-0.11,0.1-0.16,0.15c-0.01,0.01-0.01,0.01-0.02,0.02
	c-0.05,0.09-0.1,0.18-0.15,0.26c-0.03,0.07-0.06,0.13-0.09,0.2c-0.01,0.03-0.01,0.05-0.02,0.08c0.05,0.08,0.09,0.16,0.14,0.23
	c0.11,0.14,0.22,0.29,0.34,0.43c0.08,0.08,0.15,0.16,0.23,0.23c0.17,0.13,0.33,0.26,0.5,0.38c0.09,0.06,0.19,0.11,0.28,0.17
	c0.29,0.13,0.58,0.26,0.87,0.38C197.5,352.12,197.62,352.15,197.74,352.19z"/>
<path d="M223.43,305.92c-2.74-0.26-5.75-1.01-8.23-2.2c-3.39-1.63-6.05-3.89-8.11-7.05c-0.98-1.51-1.8-3.13-2.48-4.79
	c-1.93-4.7-2.63-10.12-1.25-15.07c0.2-2.62,1.12-5.25,2.36-7.51c1.43-2.59,3.5-4.91,6.12-6.33c4.36-2.38,9.25-2.97,14.14-2.32
	c4.67,0.62,9,2.38,12.46,5.65c5.54,5.22,6.7,13.06,6.16,20.31c-0.34,4.43-1.85,8.82-4.76,12.22c-1.56,1.83-3.3,3.34-5.33,4.65
	c-2.73,1.77-5.96,2.55-9.18,2.55C224.7,306.01,224.06,305.98,223.43,305.92z"/>
<path d="M278.68,317.53c-5.83-8.51-7.96-20.46-1.99-29.49c1.52-2.3,3.57-4.25,5.92-5.65c5.2-6.38,14.78-8.9,22.66-7.4
	c4.46,0.85,8.38,2.78,11.73,5.85c2.6,2.38,4.76,5.3,6.63,8.27c2.49,3.94,3.41,8.57,3.26,13.19c-0.07,2.19-0.18,4.44-0.77,6.56
	c-0.85,3.05-2.23,5.95-4.29,8.38c-5.25,6.23-13.18,10.46-21.4,10.71c-0.28,0.01-0.56,0.01-0.84,0.01
	C291.52,327.97,283.32,324.31,278.68,317.53z M299.8,305.65c0.11-0.01,0.22-0.03,0.33-0.04c0.41-0.1,0.82-0.22,1.23-0.34
	c0.26-0.1,0.51-0.21,0.76-0.32c0.3-0.17,0.6-0.35,0.89-0.53c0.41-0.3,0.82-0.62,1.21-0.94c0.06-0.06,0.12-0.12,0.18-0.18
	c0.03-0.04,0.07-0.08,0.1-0.12c0.02-0.14,0.04-0.28,0.05-0.41c0.02-0.6,0.03-1.19,0.03-1.79c-0.01-0.1-0.02-0.2-0.04-0.29
	c-0.08-0.13-0.15-0.25-0.23-0.38c-0.61-0.86-1.24-1.7-1.9-2.52c-0.2-0.21-0.41-0.42-0.62-0.62c-0.07-0.05-0.13-0.1-0.2-0.16
	c-0.05-0.01-0.1-0.03-0.15-0.04c-0.25-0.04-0.5-0.07-0.75-0.1c-0.08,0.01-0.17,0.02-0.25,0.04c-0.3,0.08-0.6,0.16-0.89,0.24
	c-1.02,2.06-2.16,4.07-3.45,5.99c0.12,0.29,0.24,0.59,0.37,0.88c0.03,0.05,0.06,0.1,0.08,0.15c0.13,0.17,0.26,0.35,0.4,0.52
	c0.15,0.15,0.31,0.3,0.46,0.45c0.01,0.01,0.02,0.02,0.04,0.03c0.05,0.03,0.11,0.06,0.16,0.1c0.09,0.04,0.17,0.07,0.26,0.11
	c0.22,0.06,0.43,0.12,0.65,0.18c0.25,0.04,0.49,0.08,0.74,0.11C299.44,305.65,299.62,305.65,299.8,305.65z"/>
<path d="M293.41,207.31c-3.33-2.06-5.61-5.72-6.39-9.52c-0.51-2.5-0.64-4.89-0.39-7.43c0.16-1.63,0.65-3.31,1.13-4.88
	c1.06-3.43,2.87-6.56,5.19-9.29c2.73-3.2,5.96-5.64,9.78-7.39c3.35-1.54,7.09-2.31,10.73-2.72c3.77-0.43,7.72-0.47,11.37,0.69
	c3.39,1.08,6.38,2.84,8.63,5.63c1.93,2.4,3.15,5.94,2.03,8.94c-0.49,1.34-1.58,1.8-2.77,2.37c-0.09,0.04-0.17,0.09-0.26,0.13
	c0.22-0.11,0.44-0.22,0.65-0.33c-1.78,0.9-3.6,1.74-5.42,2.56c-1.92,0.86-3.9,1.38-5.96,1.78c-1.7,0.34-3.47,0.28-5.21,0.34
	c-0.87,0.09-1.73,0.22-2.59,0.37c-0.56,0.13-1.11,0.27-1.67,0.43c-0.25,0.1-0.51,0.21-0.76,0.32c-0.23,0.13-0.45,0.25-0.67,0.39
	c-0.04,0.03-0.08,0.06-0.11,0.09c-0.19,0.19-0.39,0.38-0.57,0.58c-0.22,0.27-0.43,0.54-0.63,0.82c-0.11,0.18-0.22,0.36-0.32,0.54
	c-0.01,0.03-0.03,0.06-0.04,0.09c-0.2,0.68-0.38,1.37-0.54,2.06c-0.48,2.03-1.39,3.94-2.39,5.77c-1.21,2.23-2.87,4.34-4.56,6.26
	c-0.73,0.86-1.68,2.1-2.71,2.47c-0.49,0.17-0.99,0.25-1.5,0.25C296.04,208.64,294.58,208.04,293.41,207.31z"/>
<path d="M449.28,305.75c-4.09-0.29-8.02-1.44-11.57-3.47c-3.76-2.14-7.21-5.82-9.17-9.7c-1.93-3.81-3.17-7.7-3.34-11.99
	c-0.15-3.91,0.76-7.87,2.16-11.49c2.51-6.49,7.89-11.4,14.34-13.85c3.14-1.2,6.3-2,9.67-2.15c3.3-0.14,6.74,0.68,9.75,1.99
	c6.3,2.75,11.82,8.67,12.36,15.75c0.26,3.35-0.19,7.12-2.31,9.87c-0.23,0.3-0.52,0.63-0.84,0.95c0.59,0.66,1.07,1.42,1.43,2.14
	c1.76,3.53,1.27,8.11-0.42,11.57c-0.95,1.97-2.14,3.76-3.74,5.27c-2.06,1.95-4.43,3.15-7.09,4.06c-2.57,0.87-5.26,1.16-7.95,1.16
	C451.46,305.87,450.36,305.82,449.28,305.75z M452.7,283.59c0.31-0.04,0.63-0.09,0.94-0.14c0.19-0.05,0.39-0.1,0.58-0.16
	c2.17-0.79,4.39-1.48,6.63-2.04c-0.65-0.31-1.29-0.64-1.93-1.01c-2.31-1.31-4.5-2.78-6.5-4.54c0,0,0,0,0,0
	c0.32,0.29,0.65,0.57,0.97,0.86c-0.38-0.34-0.77-0.67-1.17-0.98c-0.06-0.04-0.13-0.07-0.19-0.11c-0.01-0.01-0.03-0.01-0.04-0.02
	c-0.02-0.01-0.05-0.01-0.07-0.02c-0.05-0.01-0.1-0.02-0.15-0.02c-0.02,0-0.05,0.01-0.07,0.01c-0.43,0.11-0.86,0.24-1.29,0.37
	c-0.46,0.17-0.91,0.36-1.36,0.55c-0.09,0.05-0.18,0.1-0.27,0.15c-0.11,0.08-0.22,0.16-0.33,0.24c-0.01,0.01-0.02,0.02-0.03,0.03
	c-0.04,0.05-0.07,0.09-0.11,0.14c-0.04,0.07-0.08,0.13-0.11,0.2c-0.11,0.26-0.22,0.51-0.32,0.77c-0.06,0.22-0.13,0.43-0.19,0.65
	c-0.07,0.46-0.13,0.91-0.18,1.37c0,0.07,0,0.14,0,0.2c0.01,0.09,0.02,0.17,0.04,0.26c0.05,0.21,0.11,0.41,0.17,0.62
	c0.1,0.24,0.2,0.48,0.3,0.72c0.08,0.15,0.17,0.3,0.26,0.45c0.15,0.2,0.31,0.4,0.47,0.6c0.09,0.08,0.17,0.17,0.26,0.25
	c0.11,0.06,0.21,0.12,0.32,0.19c0.17,0.05,0.34,0.09,0.52,0.14c0.63,0.1,1.27,0.19,1.91,0.25
	C452.06,283.59,452.38,283.6,452.7,283.59z"/>
<path d="M544.83,406.82c-3.7-0.83-7.26-2.52-10.02-5.16c-1.74-1.66-3.14-3.62-4.34-5.69c-1.83-3.18-3-6.87-3.8-10.43
	c-0.77-3.46-1.07-6.9-0.54-10.43c0.51-3.46,2.03-6.62,4-9.47c1.67-2.42,3.84-5.1,6.49-6.49c1.45-0.76,2.87-1.39,4.38-1.83
	c0.29-0.22,0.58-0.42,0.89-0.62c2.59-1.67,5.51-2.3,8.54-2.48c4.27-0.26,8.67,1.59,12.31,3.67c0.45,0.25,0.88,0.52,1.3,0.81
	c0.17,0.11,0.34,0.22,0.51,0.34c2.89,1.75,5.35,4.52,7.18,7.09c4.82,6.76,5.93,15.45,3.78,23.41c-2.32,8.59-9.29,14.86-17.81,17.07
	c-2.3,0.59-4.61,0.89-6.92,0.89C548.8,407.48,546.81,407.26,544.83,406.82z M550.91,385.21c0.21-0.03,0.42-0.06,0.63-0.09
	c0.36-0.1,0.71-0.2,1.07-0.31c0.2-0.08,0.4-0.17,0.6-0.25c0.04-0.02,0.09-0.05,0.13-0.08c0.12-0.09,0.24-0.18,0.36-0.28
	c0.03-0.02,0.05-0.05,0.08-0.07c0.03-0.04,0.06-0.08,0.1-0.12c0.03-0.11,0.06-0.22,0.1-0.33c0.09-0.55,0.16-1.11,0.22-1.67
	c0.02-0.47,0.03-0.94,0.03-1.4c-0.01-0.08-0.02-0.17-0.04-0.25c-0.01-0.03-0.02-0.06-0.02-0.08c-0.09-0.23-0.19-0.47-0.28-0.7
	c-0.07-0.13-0.14-0.25-0.22-0.37c-0.14-0.18-0.28-0.36-0.43-0.54c-0.3-0.32-0.61-0.63-0.92-0.94c-0.12-0.1-0.25-0.2-0.37-0.29
	c-0.26-0.15-0.52-0.3-0.78-0.45c-0.01-0.01-0.03-0.02-0.04-0.02c-0.32-0.14-0.64-0.28-0.96-0.41c-0.44,0.42-0.88,0.85-1.3,1.28
	c-0.17,0.21-0.33,0.42-0.48,0.64c-0.08,0.13-0.16,0.27-0.23,0.4c0,0.01,0,0.02-0.01,0.03c0.05,0.4,0.11,0.78,0.17,1.18
	c0.26,1.09,0.57,2.16,0.91,3.23c0.24,0.61,0.49,1.21,0.76,1.8C550.29,385.14,550.6,385.18,550.91,385.21z"/>
<path d="M497.63,279.15c-2.71-1.49-5.05-3.44-7.18-5.67c-5.18-5.44-7.82-12.85-6.58-20.33c0.52-3.14,1.69-6.2,3.45-8.86
	c1.57-2.39,3.49-4.26,5.7-6.04c1.59-1.28,3.48-2.31,5.31-3.18c2.05-0.98,4.45-1.84,6.84-2.12c4.28-1.62,8.94-2.24,13.48-1.6
	c4.57,0.64,9.06,3.45,11.89,7.06c2.55,3.26,4.01,6.8,4.69,10.86c0.77,4.6-0.09,9.57-1.71,13.89c-1.22,3.23-3.03,6.29-5.14,9
	c-2.89,3.71-6.48,6.61-10.75,8.6c-2.36,1.1-5.02,1.58-7.71,1.58C505.6,282.33,501.17,281.09,497.63,279.15z M510.68,258.54
	c0.23-0.3,0.46-0.6,0.68-0.9c0.31-0.51,0.62-1.02,0.91-1.55c0.19-0.41,0.37-0.83,0.54-1.26c0.07-0.23,0.13-0.45,0.19-0.68
	c-0.31,0.04-0.63,0.08-0.94,0.12c-0.02,0.01-0.04,0.02-0.06,0.03c-0.11,0.06-0.22,0.13-0.33,0.19c-0.27,0.2-0.53,0.4-0.79,0.61
	c-0.16,0.15-0.31,0.29-0.46,0.44c-0.08,0.1-0.15,0.2-0.23,0.31c-0.08,0.14-0.16,0.28-0.24,0.42c-0.04,0.09-0.08,0.19-0.12,0.28
	c-0.07,0.24-0.14,0.48-0.2,0.73c-0.01,0.04-0.01,0.09-0.02,0.13C509.96,257.78,510.32,258.16,510.68,258.54z"/>
<path d="M159.26,426.27c-4.02-1.07-7.86-3.12-10.66-6.27c-1.18-1.33-2.28-2.66-3.29-4.11c-3.08-4.39-5.19-9.26-5.7-14.65
	c-0.6-6.32,0.93-12.97,4.09-18.43c3-5.16,7.83-9.14,13.26-11.51c3.32-1.45,7.26-2.25,10.89-1.76c1.96,0.27,3.73,0.89,5.41,1.75
	c2.44,0.36,4.83,1.03,7.06,1.81c2.89,1.02,5.62,3.2,7.78,5.3c1.51,1.47,2.77,3.2,3.89,4.97c4.15,6.53,5.01,14.93,3.23,22.36
	c-0.54,2.23-1.38,4.28-2.47,6.29c-0.79,1.46-1.99,2.7-3.08,3.92c-1.1,1.23-2.43,2.27-3.74,3.25c-2.96,2.23-6.42,3.81-9.86,5.14
	c-3.77,1.46-7.75,2.58-11.76,2.58C162.63,426.91,160.94,426.71,159.26,426.27z M164.74,404.57c0.75-0.21,1.5-0.43,2.24-0.67
	c1.35-0.5,2.68-1.05,3.98-1.66c0.46-0.24,0.91-0.5,1.36-0.77c0.31-0.23,0.61-0.46,0.91-0.7c0.09-0.09,0.19-0.18,0.28-0.27
	c0.1-0.63,0.18-1.25,0.25-1.88c0.01-0.27,0.01-0.54,0.01-0.81c-0.04-0.3-0.08-0.61-0.13-0.91c-0.08-0.3-0.16-0.59-0.24-0.89
	c-0.12-0.28-0.24-0.56-0.36-0.84c-0.06-0.11-0.13-0.22-0.19-0.33c-0.12-0.17-0.25-0.34-0.38-0.5c-0.13-0.13-0.25-0.26-0.38-0.39
	c-0.02-0.02-0.05-0.04-0.07-0.06c-0.11-0.07-0.22-0.13-0.32-0.19c-0.21-0.06-0.43-0.11-0.65-0.16c-0.44-0.06-0.87-0.12-1.31-0.17
	c-0.19,0-0.39,0-0.58,0c-0.39,0.03-0.79,0.06-1.19,0.09c0.02,0,0.04,0,0.07,0c-0.03,0-0.06,0-0.09,0.01
	c-0.21,0.01-0.42,0.03-0.62,0.04c-0.65,0.04-1.3,0.09-1.94,0.13c-0.75,0.06-1.49,0.13-2.23,0.22c-0.04,0.05-0.08,0.11-0.12,0.16
	c-0.18,0.29-0.34,0.58-0.51,0.88c-0.04,0.1-0.09,0.2-0.13,0.3c-0.11,0.38-0.21,0.76-0.31,1.15c-0.08,0.56-0.15,1.13-0.21,1.69
	c-0.02,0.43-0.03,0.86-0.03,1.3c0.01,0.1,0.03,0.2,0.04,0.3c0.09,0.35,0.19,0.68,0.29,1.02c0.05,0.11,0.09,0.22,0.14,0.33
	c0.33,0.6,0.68,1.18,1.04,1.76c0.41,0.56,0.82,1.12,1.25,1.66C164.64,404.48,164.69,404.53,164.74,404.57z"/>
<path d="M199.82,339.18c0-6.08,5.08-11.16,11.16-11.16s11.16,5.08,11.16,11.16s-5.08,11.16-11.16,11.16S199.82,345.27,199.82,339.18
	z"/>
</svg>
